<?xml version="1.0" standalone="no"?><!DOCTYPE svg PUBLIC "-//W3C//DTD SVG 1.1//EN" "http://www.w3.org/Graphics/SVG/1.1/DTD/svg11.dtd" ><svg xmlns="http://www.w3.org/2000/svg"><metadata></metadata><defs><font id="iconfont" horiz-adv-x="2041"><font-face font-family="iconfont" font-weight="400" font-stretch="normal" units-per-em="1024" panose-1="2 0 5 3 0 0 0 0 0 0" ascent="896" descent="-128" x-height="0" bbox="-41 -164 1980 938" underline-thickness="0" underline-position="10" unicode-range="U+e600-eab8" /><missing-glyph horiz-adv-x="1024"  /><glyph glyph-name="bullet-subtitle" unicode="&#xe628;" d="M111 -128 q-47 1 -78 32 q-31 31 -32 77 l0 806 q1 46 32 77 q31 31 78 32 l1082 0 q46 -1 77.5 -32 q31.5 -31 32.5 -77 l0 -806 q-1 -46 -32.5 -76.5 q-31.5 -30.5 -77.5 -32.5 l-1082 0 ZM111 800 q-5 0 -8.5 -3.5 q-3.5 -3.5 -3.5 -9.5 l0 -806 q0 -5 3.5 -9 q3.5 -4 8.5 -4 l1082 0 q5 0 8.5 4 q3.5 4 3.5 9 l0 806 q0 6 -3.5 9.5 q-3.5 3.5 -8.5 3.5 l-1082 0 ZM1003 376 q0 -22 -14 -37 q-14 -15 -36 -16 l-80 0 q-22 1 -36 16 q-14 15 -14 37 q0 22 14 37 q14 15 36 16 l80 0 q21 -1 35.5 -16 q14.5 -15 14.5 -37 ZM1097 626 q-1 -22 -15 -37 q-14 -15 -35 -16 l-814 0 q-22 1 -36 16 q-14 15 -14 37 q0 22 14 37 q14 15 36 15 l814 0 q21 0 35 -15 q14 -15 15 -37 ZM769 376 q-1 -22 -15 -37 q-14 -15 -35 -16 l-486 0 q-22 2 -36 16.5 q-14 14.5 -14 36.5 q0 22 14 37 q14 15 36 15 l486 0 q21 0 35 -15 q14 -15 15 -37 ZM1097 160 q-1 -22 -15 -37 q-14 -15 -35 -15 l-486 0 q-22 0 -36.5 15.5 q-14.5 15.5 -14 37 q0.5 21.5 14.5 36.5 q14 15 36 15 l486 0 q21 0 35 -15 q14 -15 15 -37 Z" /><glyph glyph-name="quote" unicode="&#xe6b2;" d="M788 437 q-5 -149 -49.5 -227.5 q-44.5 -78.5 -139.5 -118.5 l76 -120 q156 70 229 208 q55 103 55 334 l0 284 l-333 0 l0 -360 l162 0 ZM255 437 q-6 -149 -50.5 -227.5 q-44.5 -78.5 -139.5 -118.5 l76 -120 q157 70 229 208 q55 103 55 334 l0 284 l-332 0 l0 -360 l162 0 Z" /><glyph glyph-name="lijitoudi" unicode="&#xe627;" d="M453 293 q-10 1 -17.5 6 q-7.5 5 -11.5 14 q-4 9 -2 18 q2 9 9 16 l471 471 q10 9 22.5 9 q12.5 0 21.5 -9 q9 -9 9 -21.5 q0 -12.5 -9 -22.5 l-471 -471 q-9 -9 -22 -10 ZM659 -128 q-19 1 -28 18 l-192 402 l-422 211 q-8 5 -12.5 13 q-4.5 8 -4 17.5 q0.5 9.5 6 17 q5.5 7.5 15.5 10.5 l941 314 q4 10 13 16 q9 6 20 4.5 q11 -1.5 18.5 -9 q7.5 -7.5 9 -18.5 q1.5 -11 -4.5 -20 q-6 -9 -16 -13 l-314 -941 q-3 -10 -10.5 -15.5 q-7.5 -5.5 -17.5 -6.5 l-2 0 ZM113 526 l364 -183 q9 -5 14 -15 l163 -341 l269 808 l-810 -269 ZM354 33 q-15 1 -24 12 q-9 11 -7 26 l50 247 q3 18 20.5 24 q17.5 6 31 -6.5 q13.5 -12.5 9.5 -30.5 l-34 -172 l85 57 q11 6 23 3.5 q12 -2.5 19 -13.5 q7 -11 5 -23 q-2 -12 -13 -20 l-148 -98 q-7 -6 -17 -6 Z" /><glyph glyph-name="search" unicode="&#xe622;" d="M946 -33 l-218 220 q-4 4 -8 7 q28 43 43 93 q15 50 15 105 q-4 155 -106 258 q-102 103 -255 107 q-154 -4 -256 -107 q-102 -103 -106 -258 q4 -155 106 -257.5 q102 -102.5 256 -106.5 q54 0 104 15.5 q50 15.5 93 43.5 q2 -4 6 -8 l219 -220 q23 -23 53.5 -23 q30.5 0 53 23 q22.5 23 22.5 53.5 q0 30.5 -22 54.5 ZM417 143 q-105 3 -175 73.5 q-70 70.5 -73 175.5 q3 106 73 176.5 q70 70.5 175 73.5 q105 -3 174.5 -73.5 q69.5 -70.5 72.5 -176.5 q-3 -105 -72.5 -175.5 q-69.5 -70.5 -174.5 -73.5 Z" /><glyph glyph-name="liandong1" unicode="&#xe742;" d="M960 353 q-1 -12 -10 -21 q-9 -9 -21 -9 q-12 0 -21 7.5 q-9 7.5 -10 22.5 q-1 110 -56 200 q-55 90 -148 138 q-15 9 -15.5 25 q-0.5 16 15.5 32 q7 7 15 5.5 q8 -1.5 15 -5.5 q110 -60 174 -165 q64 -105 62 -230 ZM248 -10 q58 -43 126 -65 q68 -22 140 -22 q70 0 134.5 21.5 q64.5 21.5 121.5 60.5 q16 8 16 31 q-1 11 -7 16.5 q-6 5.5 -14 8.5 q-15 9 -30 -5 q-51 -34 -107 -50.5 q-56 -16.5 -114 -16.5 q-61 1 -118 19 q-57 18 -107 53 q-12 8 -25 5.5 q-13 -2.5 -21 -10.5 q-7 -12 -5 -25 q2 -13 10 -21 ZM305 748 q-112 -60 -176 -164 q-64 -104 -65 -231 q0 -12 9.5 -21 q9.5 -9 21.5 -9 q12 0 23.5 7.5 q11.5 7.5 11.5 22.5 q2 109 57 198 q55 89 148 140 q15 9 15.5 25 q0.5 16 -15.5 32 q-4 4 -13 4 q-9 0 -17 -4 ZM896 31 q-55 1 -91 37 q-36 36 -37 91 q1 55 37 91 q36 36 91 37 q55 -1 91 -37 q36 -36 37 -91 q-1 -55 -37 -91 q-36 -36 -91 -37 ZM128 31 q-55 1 -91 37 q-36 36 -37 91 q1 55 37 91 q36 36 91 37 q55 -1 91 -37 q36 -36 37 -91 q-1 -55 -37 -91 q-36 -36 -91 -37 ZM512 640 q-55 1 -91 37 q-36 36 -37 91 q1 55 37 91 q36 36 91 37 q55 -1 91 -37 q36 -36 37 -91 q-1 -55 -37 -91 q-36 -36 -91 -37 Z" /><glyph glyph-name="xiazuan" unicode="&#xe7e6;" d="M657 737 l-14 7 l0 -83 l261 -160 l-380 -202 l-386 202 l261 153 l7 0 l0 96 l-352 -210 q-16 -5 -22.5 -14.5 q-6.5 -9.5 -5.5 -24.5 q-1 -9 5.5 -18.5 q6.5 -9.5 22.5 -19.5 l407 -221 q11 -5 29 -9 q18 -4 34 -4 q16 0 32 4 q16 4 32 9 l407 221 q16 5 22 16.5 q6 11.5 6 21.5 q0 15 -6 24.5 q-6 9.5 -22 14.5 l-338 197 ZM565 102 l-2 81 l-77 0 l0 -81 l-82 83 q-9 17 -29 12 q-20 -5 -28 -12 q-5 -5 -9 -12.5 q-4 -7.5 -4 -13 q0 -5.5 4 -13 q4 -7.5 9 -12.5 l152 -147 q6 -5 12 -8.5 q6 -3.5 12 -4.5 q10 1 16 4.5 q6 3.5 11 8.5 l151 147 q11 10 11 25.5 q0 15.5 -11 25.5 q-11 10 -27.5 10 q-16.5 0 -28.5 -10 l-80 -83 ZM525 421 q16 1 27 11.5 q11 10.5 11 27.5 l0 346 q0 17 -11 27.5 q-11 10.5 -27.5 10.5 q-16.5 0 -27 -10.5 q-10.5 -10.5 -11.5 -27.5 l0 -346 q1 -16 12 -27 q11 -11 27 -12 Z" /><glyph glyph-name="icon_home" unicode="&#xe79d;" d="M442 742 l-301 -256 q-14 -15 -10.5 -33 q3.5 -18 23.5 -24 l102 -45 l0 -237 q1 -34 25.5 -58 q24.5 -24 64.5 -25 l102 0 l0 160 q0 29 17.5 46.5 q17.5 17.5 46.5 17.5 q29 0 46.5 -17.5 q17.5 -17.5 17.5 -46.5 l0 -160 l109 0 q34 1 58 25 q24 24 25 58 l0 237 l102 45 q20 11 23 29 q3 18 -16 28 l-301 256 q-29 24 -64.5 24 q-35.5 0 -69.5 -24 Z" /><glyph glyph-name="icon_mail_line" unicode="&#xe7a1;" d="M736 704 l-448 0 q-73 -11 -116 -62.5 q-43 -51.5 -44 -129.5 l0 -256 q2 -83 55.5 -136.5 q53.5 -53.5 136.5 -55.5 l384 0 q83 2 136.5 55.5 q53.5 53.5 55.5 136.5 l0 256 q-2 73 -46.5 124.5 q-44.5 51.5 -113.5 67.5 ZM704 640 q10 0 19.5 -1 q9.5 -1 18.5 -5 q5 -5 6 -9 l1 -4 q1 -6 0.5 -17 q-0.5 -11 -13.5 -22 l-179 -153 q-20 -15 -45 -15 q-25 0 -45 15 l-179 153 q-13 11 -13.5 22 q-0.5 11 0.5 17 q0 0 5 7 q5 7 14 12 l410 0 ZM832 256 q-1 -54 -37.5 -90.5 q-36.5 -36.5 -90.5 -37.5 l-384 0 q-54 1 -90.5 37.5 q-36.5 36.5 -37.5 90.5 l0 256 q0 19 5 37.5 q5 18.5 14 32.5 q5 -14 11.5 -27.5 q6.5 -13.5 20.5 -23.5 l186 -147 q15 -19 37 -25.5 q22 -6.5 46 -6.5 q24 0 46 6.5 q22 6.5 37 25.5 l179 147 q14 10 21 24.5 q7 14.5 11 33.5 q10 -15 18 -34 q8 -19 8 -43 l0 -256 Z" /><glyph glyph-name="icon_phone" unicode="&#xe79f;" d="M672 832 l-320 0 q-40 -1 -67.5 -28.5 q-27.5 -27.5 -28.5 -67.5 l0 -640 q1 -40 28.5 -67.5 q27.5 -27.5 67.5 -28.5 l320 0 q40 1 67.5 28.5 q27.5 27.5 28.5 67.5 l0 640 q-1 40 -28.5 67.5 q-27.5 27.5 -67.5 28.5 ZM512 64 q-15 0 -23.5 8.5 q-8.5 8.5 -8.5 23.5 q0 15 8.5 23.5 q8.5 8.5 23.5 8.5 q15 0 23.5 -8.5 q8.5 -8.5 8.5 -23.5 q0 -15 -8.5 -23.5 q-8.5 -8.5 -23.5 -8.5 ZM704 192 l-384 0 l0 512 l384 0 l0 -512 Z" /><glyph glyph-name="pro-home" unicode="&#xe623;" d="M610 78 l102 0 q22 1 36.5 15.5 q14.5 14.5 15.5 36.5 l0 307 l119 0 l-371 331 l-371 -331 l119 0 l0 -307 q1 -22 15.5 -36.5 q14.5 -14.5 36.5 -15.5 l103 0 l0 199 q0 13 8.5 21.5 q8.5 8.5 21.5 8.5 l135 0 q13 0 21.5 -8.5 q8.5 -8.5 8.5 -21.5 l0 -199 ZM475 247 l0 -169 q-1 -25 -18 -42 q-17 -17 -42 -18 l-103 0 q-48 1 -79.5 32.5 q-31.5 31.5 -32.5 79.5 l0 247 l-59 0 q-43 3 -56.5 38.5 q-13.5 35.5 16.5 66.5 l371 331 q18 15 40 15 q22 0 40 -15 l371 -331 q30 -31 16.5 -66.5 q-13.5 -35.5 -56.5 -38.5 l-59 0 l0 -247 q-1 -48 -32.5 -79.5 q-31.5 -31.5 -79.5 -32.5 l-102 0 q-25 1 -42 18 q-17 17 -18 42 l0 169 l-75 0 Z" /><glyph glyph-name="pro-ab" unicode="&#xe624;" d="M207 612 l522 0 l0 -60 l-522 0 l0 60 ZM498 552 l0 -522 l-60 0 l0 522 l60 0 ZM333 90 l264 0 l0 -60 l-264 0 l0 60 ZM207 570 l79 0 l0 -60 l-79 0 l0 60 ZM650 570 l79 0 l0 -60 l-79 0 l0 60 ZM577 364 l299 0 l0 -34 l-299 0 l0 34 ZM744 330 l0 -300 l-34 0 l0 300 l34 0 ZM649 64 l151 0 l0 -34 l-151 0 l0 34 ZM577 340 l45 0 l0 -34 l-45 0 l0 34 ZM831 340 l45 0 l0 -34 l-45 0 l0 34 Z" /><glyph glyph-name="weiduxuanze" unicode="&#xe621;" d="M564 808 l-467 -203 l467 -203 l467 203 l-467 203 ZM591 871 l467 -203 q19 -8 30 -25 q11 -17 11 -37.5 q0 -20.5 -11 -37.5 q-11 -17 -30 -25 l-467 -203 q-27 -12 -54 0 l-468 203 q-19 8 -29.5 25 q-10.5 17 -10.5 37.5 q0 20.5 10.5 37 q10.5 16.5 29.5 25.5 l468 203 q27 11 54 0 ZM546 145 l-136 68 l-137 69 l-69 -40 l-107 -46 l467 -203 l467 203 l-212 86 l-273 -137 ZM922 318 l136 -60 q19 -8 30 -25 q11 -17 11 -37.5 q0 -20.5 -11 -37 q-11 -16.5 -30 -25.5 l-467 -203 q-27 -11 -54 0 l-468 203 q-19 9 -29.5 25.5 q-10.5 16.5 -10.5 37 q0 20.5 10.5 37.5 q10.5 17 29.5 25 l137 60 l204 -105 l136 -68 l376 173 ZM546 350 l-136 68 l-137 68 l-69 -39 l-107 -46 l467 -203 l467 203 l-212 85 l-273 -136 ZM922 522 l136 -59 q19 -8 30 -25 q11 -17 11 -37.5 q0 -20.5 -11 -37.5 q-11 -17 -30 -25 l-467 -203 q-27 -11 -54 0 l-468 203 q-19 8 -29.5 25 q-10.5 17 -10.5 37.5 q0 20.5 10.5 37.5 q10.5 17 29.5 25 l137 60 l204 -105 l136 -68 l376 172 Z" /><glyph glyph-name="clock" unicode="&#xe620;" d="M515 -110 q-210 6 -349.5 145.5 q-139.5 139.5 -144.5 349.5 q5 210 144.5 349.5 q139.5 139.5 349.5 144.5 q210 -5 349.5 -144.5 q139.5 -139.5 145.5 -349.5 q-6 -210 -145.5 -349.5 q-139.5 -139.5 -349.5 -145.5 ZM515 806 q-179 -4 -298 -123 q-119 -119 -123 -298 q4 -179 123 -298 q119 -119 298 -124 q179 5 298 124 q119 119 123 298 q-4 179 -123 298 q-119 119 -298 123 ZM698 89 l-239 244 l0 380 l74 0 l0 -351 l218 -222 l-53 -51 Z" /><glyph glyph-name="video" unicode="&#xe630;" d="M994 755 l-966 0 q-12 -1 -20 -9 q-8 -8 -9 -20 l0 -667 q1 -12 9 -20 q8 -8 20 -9 l966 0 q12 1 20 9 q8 8 8 20 l0 667 q0 12 -8 20 q-8 8 -20 9 l0 0 ZM153 130 q0 -6 -4 -10 q-4 -4 -10 -4 l-64 0 q-6 0 -10 4 q-4 4 -4 10 l0 64 q0 6 4 10 q4 4 10 4 l64 0 q6 0 10 -4 q4 -4 4 -10 l0 -64 ZM153 286 q0 -6 -4 -10 q-4 -4 -10 -4 l-64 0 q-6 0 -10 4 q-4 4 -4 10 l0 64 q0 6 4 10 q4 4 10 4 l64 0 q6 0 10 -4 q4 -4 4 -10 l0 -64 ZM153 435 q0 -6 -4 -10 q-4 -4 -10 -4 l-64 0 q-6 0 -10 4 q-4 4 -4 10 l0 64 q0 6 4 10 q4 4 10 4 l64 0 q6 0 10 -4 q4 -4 4 -10 l0 -64 ZM153 591 q0 -6 -4 -10 q-4 -4 -10 -4 l-64 0 q-6 0 -10 4 q-4 4 -4 10 l0 64 q0 6 4 10 q4 4 10 5 l64 0 q6 -1 10 -5 q4 -4 4 -10 l0 -64 ZM802 125 q0 -12 -8 -20 q-8 -8 -20 -8 l-526 0 q-12 0 -20 8 q-8 8 -8 20 l0 536 q0 12 8 20 q8 8 20 8 l526 0 q12 0 20 -8 q8 -8 8 -20 l0 -536 ZM961 130 q0 -6 -4 -10 q-4 -4 -10 -4 l-64 0 q-6 0 -10 4 q-4 4 -4 10 l0 64 q0 6 4 10 q4 4 10 4 l64 0 q6 0 10 -4 q4 -4 4 -10 l0 -64 ZM961 286 q0 -6 -4 -10 q-4 -4 -10 -4 l-64 0 q-6 0 -10 4 q-4 4 -4 10 l0 64 q0 6 4 10 q4 4 10 4 l64 0 q6 0 10 -4 q4 -4 4 -10 l0 -64 ZM961 435 q0 -6 -4 -10 q-4 -4 -10 -4 l-64 0 q-6 0 -10 4 q-4 4 -4 10 l0 64 q0 6 4 10 q4 4 10 4 l64 0 q6 0 10 -4 q4 -4 4 -10 l0 -64 ZM961 591 q0 -6 -4 -10 q-4 -4 -10 -4 l-64 0 q-6 0 -10 4 q-4 4 -4 10 l0 64 q0 6 4 10 q4 4 10 5 l64 0 q6 -1 10 -5 q4 -4 4 -10 l0 -64 ZM397 261 l263 131 l-263 132 l0 -263 ZM397 261 l0 0 Z" /><glyph glyph-name="iframe" unicode="&#xe61f;" d="M954 799 l-888 0 q-22 0 -37 -15 q-15 -15 -16 -38 l0 -742 q1 -23 16 -37.5 q15 -14.5 37 -15.5 l888 0 q23 1 38 15.5 q15 14.5 15 37.5 l0 742 q0 22 -15.5 37.5 q-15.5 15.5 -37.5 15.5 ZM837 733 q12 0 21.5 -5.5 q9.5 -5.5 15.5 -15.5 q6 -10 6 -21 q0 -11 -6 -21 q-6 -10 -15.5 -15.5 q-9.5 -5.5 -21.5 -5.5 q-17 1 -28.5 13 q-11.5 12 -11.5 29.5 q0 17.5 11.5 29 q11.5 11.5 28.5 12.5 ZM719 733 q12 0 21.5 -5.5 q9.5 -5.5 15.5 -15.5 q6 -10 6 -21 q0 -11 -6 -21 q-6 -10 -15.5 -15.5 q-9.5 -5.5 -21.5 -5.5 q-17 1 -28.5 13 q-11.5 12 -11.5 29.5 q0 17.5 11.5 29 q11.5 11.5 28.5 12.5 ZM601 733 q11 0 21 -5.5 q10 -5.5 16 -15.5 q6 -10 6 -21 q0 -11 -6 -21 q-6 -10 -16 -15.5 q-10 -5.5 -21 -5.5 q-18 1 -29.5 13 q-11.5 12 -11.5 29.5 q0 17.5 11.5 29 q11.5 11.5 29.5 12.5 ZM901 57 l-782 0 l0 539 l782 0 l0 -539 Z" /><glyph glyph-name="cube2" unicode="&#xe61e;" d="M86 171 q0 -13 6.5 -23 q6.5 -10 18.5 -16 l383 -176 l2 0 q8 -4 16 -4 q8 0 16 3 l2 1 l383 176 q11 5 18 15.5 q7 10.5 7 23.5 l0 427 q0 5 -2 11 l-1 3 q-1 4 -3 7 l-3 4 q-3 4 -8 8 l-3 2 l-5 3 l-384 171 q-17 7 -34 0 l-384 -171 l-5 -3 l-3 -2 q-5 -3 -8 -8 l-3 -4 q-2 -3 -3 -7 l-1 -3 q-2 -6 -2 -11 l0 -427 ZM171 531 l298 -133 l0 -337 l-298 137 l0 333 ZM853 198 l-298 -137 l0 337 l298 133 l0 -333 ZM512 721 l279 -124 l-279 -125 l-279 125 l279 124 Z" /><glyph glyph-name="cube1" unicode="&#xe61c;" d="M935 560 q-6 0 -11 -2 l-355 -184 q-11 -7 -18 -18.5 q-7 -11.5 -7 -24.5 l0 -372 q0 -10 7.5 -16.5 q7.5 -6.5 17.5 -6.5 q7 0 13 3 l351 186 q12 7 19.5 18.5 q7.5 11.5 7.5 25.5 l0 368 q0 10 -7.5 16.5 q-7.5 6.5 -17.5 6.5 ZM909 659 l-364 163 l-12 5 q-11 4 -21 4 q-10 0 -21 -4 l-12 -5 l-364 -163 q-1 0 -8 -5 q-7 -5 -7 -14.5 q0 -9.5 7.5 -16 q7.5 -6.5 8.5 -6.5 l371 -196 q11 -5 25 -5 q14 0 25 5 l371 196 q1 0 7.5 6 q6.5 6 7.5 17 q-1 10 -7.5 14.5 q-6.5 4.5 -6.5 4.5 ZM455 374 l-8 4 l-347 180 q-5 2 -11 2 q-10 0 -17.5 -6.5 q-7.5 -6.5 -7.5 -16.5 l0 -368 q0 -14 7.5 -25.5 q7.5 -11.5 19.5 -18.5 l350 -186 q6 -3 14 -3 q10 0 17.5 6.5 q7.5 6.5 7.5 16.5 l0 372 q0 13 -7 24.5 q-7 11.5 -18 18.5 Z" /><glyph glyph-name="iconxiazuan1" unicode="&#xe61b;" d="M1335 -128 l0 1024 l-1024 0 l0 -1024 l1024 0 ZM394 813 l0 0 l859 0 l0 -858 l-859 0 l0 858 ZM663 541 l128 0 l0 -512 l64 0 l0 512 l128 0 l-160 192 l-160 -192 Z" /><glyph glyph-name="iconxiazuan" unicode="&#xe618;" d="M307 896 l0 -1024 l1024 0 l0 1024 l-1024 0 ZM1249 -45 l0 0 l-859 0 l0 858 l859 0 l0 -858 ZM979 227 l-128 0 l0 512 l-64 0 l0 -512 l-128 0 l160 -192 l160 192 Z" /><glyph glyph-name="heart" unicode="&#xe6aa;" d="M490 9 l-312 301 q-10 5 -58.5 68.5 q-48.5 63.5 -55.5 155.5 q1 111 63.5 172 q62.5 61 175.5 62 q67 -3 122.5 -39.5 q55.5 -36.5 86.5 -68.5 q31 32 86.5 68.5 q55.5 36.5 122.5 39.5 q113 -1 175.5 -62 q62.5 -61 63.5 -172 q-7 -92 -55.5 -155.5 q-48.5 -63.5 -58.5 -69.5 l-312 -300 q-9 -9 -22 -9 q-13 0 -22 9 Z" /><glyph glyph-name="heart1" unicode="&#xe7a0;" d="M862 692 q-36 36 -82 55 q-46 19 -98 19 q-47 0 -91 -17 q-44 -17 -79 -49 q-35 32 -79 49 q-44 17 -91 17 q-52 0 -98 -19 q-46 -19 -82 -56 q-76 -79 -75.5 -179.5 q0.5 -100.5 75.5 -178.5 l313 -313 q12 -20 37 -21 q21 0 34 17 l316 317 q75 78 75 178.5 q0 100.5 -75 180.5 ZM802 393 l-290 -290 l-290 290 q-50 52 -50 119 q0 67 50 119 q25 24 55.5 37 q30.5 13 64 13 q33.5 0 64 -13 q30.5 -13 55.5 -37 l21 -21 q12 -12 30 -12 q18 0 30 12 l21 21 q52 48 120 48 q68 0 119 -48 q50 -52 50 -119 q0 -67 -50 -119 Z" /><glyph glyph-name="star1" unicode="&#xe741;" d="M0 512 l1024 0 l-832 -640 l320 1024 l320 -1024 l-832 640 Z" /><glyph glyph-name="star" unicode="&#xe617;" d="M845 -128 q-12 0 -22 7 l-286 208 l-287 -208 q-10 -7 -22 -7 q-12 0 -22 7 q-10 7 -13.5 18.5 q-3.5 11.5 0.5 23.5 l109 337 l-287 208 q-10 7 -13.5 18.5 q-3.5 11.5 0.5 23.5 q4 12 13.5 18.5 q9.5 6.5 22.5 7.5 l353 0 l110 336 q4 12 13.5 19 q9.5 7 22 7 q12.5 0 22 -7 q9.5 -7 13.5 -19 l109 -336 l354 0 q13 -1 22.5 -7.5 q9.5 -6.5 13.5 -18.5 q4 -12 0.5 -23.5 q-3.5 -11.5 -13.5 -18.5 l-287 -208 l110 -337 q3 -12 -0.5 -23.5 q-3.5 -11.5 -13.5 -18.5 q-10 -7 -22 -7 ZM537 171 q11 -1 21 -7 l216 -157 l-83 253 q-3 12 1 23.5 q4 11.5 14 18.5 l215 157 l-267 0 q-12 0 -21.5 7 q-9.5 7 -14.5 18 l-81 254 l-82 -254 q-4 -11 -14 -18 q-10 -7 -22 -7 l-266 0 l215 -157 q10 -7 13.5 -18.5 q3.5 -11.5 -0.5 -23.5 l-82 -253 l215 157 q11 6 23 7 Z" /><glyph glyph-name="xiugaimima" unicode="&#xe684;" d="M837 -128 l-637 0 q-50 1 -82.5 37.5 q-32.5 36.5 -33.5 90.5 l0 320 q1 54 33.5 90.5 q32.5 36.5 82.5 37.5 l0 96 q3 150 93 249 q90 99 225 103 q136 -4 225.5 -103 q89.5 -99 93.5 -249 l0 -2 l-1 0 q-1 -13 -8.5 -21.5 q-7.5 -8.5 -19.5 -8.5 q-12 0 -20 8.5 q-8 8.5 -9 21.5 l0 0 l0 2 q-3 122 -76.5 203.5 q-73.5 81.5 -184.5 84.5 q-111 -3 -184.5 -84.5 q-73.5 -81.5 -75.5 -203.5 l0 -96 l579 0 q49 -1 81.5 -37.5 q32.5 -36.5 34.5 -90.5 l0 -320 q-2 -54 -34.5 -90.5 q-32.5 -36.5 -81.5 -37.5 l0 0 ZM895 320 q-1 27 -17.5 45 q-16.5 18 -40.5 19 l-637 0 q-25 -1 -41.5 -19 q-16.5 -18 -16.5 -45 l0 -320 q0 -27 16.5 -45 q16.5 -18 41.5 -19 l637 0 q24 1 40.5 19 q16.5 18 17.5 45 l0 320 ZM547 134 l0 -102 q0 -14 -8 -23 q-8 -9 -20.5 -9 q-12.5 0 -20.5 9 q-8 9 -9 23 l0 102 q-25 11 -41 34.5 q-16 23.5 -17 55.5 q1 41 25.5 68 q24.5 27 61.5 27 q37 0 61.5 -27 q24.5 -27 25.5 -68 q0 -32 -16 -55.5 q-16 -23.5 -42 -34.5 l0 0 ZM518 256 q-12 0 -20 -9 q-8 -9 -8 -23 q0 -14 8 -23 q8 -9 20.5 -9 q12.5 0 20.5 9 q8 9 8 23 q0 14 -8 23 q-8 9 -21 9 l0 0 Z" /><glyph glyph-name="organization" unicode="&#xe66b;" d="M906 159 l0 169 q-1 24 -16.5 39.5 q-15.5 15.5 -39.5 16.5 l-282 0 l0 113 l113 0 l0 337 l-338 0 l0 -337 l113 0 l0 -113 l-281 0 q-24 -1 -40 -16.5 q-16 -15.5 -17 -39.5 l0 -169 l-56 0 l0 -225 l225 0 l0 225 l-56 0 l0 113 l225 0 l0 -113 l-56 0 l0 -225 l225 0 l0 225 l-57 0 l0 113 l225 0 l0 -113 l-56 0 l0 -225 l225 0 l0 225 l-56 0 Z" /><glyph glyph-name="forward" unicode="&#xe6f0;" d="M67 325 l654 0 q13 -1 17.5 -12.5 q4.5 -11.5 -3.5 -21.5 l-190 -189 q-8 -9 -8 -20.5 q0 -11.5 8 -20.5 l44 -43 q9 -9 20.5 -9 q11.5 0 20.5 9 l345 346 q9 10 9 21 q0 11 -9 21 l-345 344 q-9 9 -20.5 9 q-11.5 0 -20.5 -9 l-42 -41 q-8 -9 -8 -20.5 q0 -11.5 8 -20.5 l189 -189 q9 -12 4.5 -23.5 q-4.5 -11.5 -17.5 -12.5 l-654 0 q-12 0 -20.5 -7.5 q-8.5 -7.5 -9.5 -19.5 l0 -60 q1 -12 8.5 -21.5 q7.5 -9.5 19.5 -9.5 Z" /><glyph glyph-name="user_circle" unicode="&#xe6ae;" d="M512 896 q-218 -5 -362.5 -149.5 q-144.5 -144.5 -149.5 -362.5 q5 -218 149.5 -362.5 q144.5 -144.5 362.5 -149.5 q218 5 362.5 149.5 q144.5 144.5 149.5 362.5 q-5 218 -149.5 362.5 q-144.5 144.5 -362.5 149.5 ZM820 105 q-39 19 -51.5 18.5 q-12.5 -0.5 -65.5 20.5 q-59 24 -80 34 q-21 10 -20 10 l0 76 q1 -1 16 20.5 q15 21.5 23 74.5 q14 -3 20 11 q6 14 7.5 29 q1.5 15 2.5 40 q1 25 -15 24 q3 27 5 49 q2 22 1 35 q-3 46 -38 83 q-35 37 -112 42 q-67 -5 -107 -42 q-40 -37 -45 -83 q-1 -13 1 -35 q2 -22 6 -49 q-16 1 -15 -24 q1 -25 2 -40 q1 -15 7 -29 q6 -14 20 -12 q8 -53 23 -74 q15 -21 16 -20 l0 -77 q1 1 -20 -9.5 q-21 -10.5 -80 -35.5 q-53 -20 -65.5 -19 q-12.5 1 -51.5 -18 q-51 56 -79.5 127 q-28.5 71 -28.5 152 q4 177 121.5 294.5 q117.5 117.5 294.5 121.5 q177 -4 294.5 -121.5 q117.5 -117.5 121.5 -294.5 q0 -81 -28.5 -152 q-28.5 -71 -79.5 -127 Z" /><glyph glyph-name="xiugaimima1" unicode="&#xe616;" d="M13 96 l0 -214 l209 0 l542 600 l-208 214 l-543 -600 ZM931 654 q16 17 16 42.5 q0 25.5 -16 43.5 l-125 128 q-17 16 -41.5 16 q-24.5 0 -41.5 -16 l-125 -128 l208 -215 l125 129 ZM431 -32 l-84 -86 l668 0 l0 86 l-584 0 Z" /><glyph glyph-name="dashboard2" unicode="&#xe6c1;" d="M399 330 l-276 0 q-25 0 -42 -17 q-17 -17 -18 -43 l0 -273 q1 -26 18 -43 q17 -17 42 -17 l276 0 q25 0 42 17 q17 17 18 43 l0 273 q-1 26 -18 43 q-17 17 -42 17 ZM399 -3 q0 0 -1 0 l-275 0 l0 273 l275 0 l1 -273 ZM899 832 l-275 0 q-26 0 -43 -17 q-17 -17 -17 -43 l0 -274 q0 -25 17 -42 q17 -17 43 -18 l275 0 q26 1 43 18 q17 17 17 42 l0 274 q0 26 -17 43 q-17 17 -43 17 ZM899 499 q0 0 0 -1 l-275 1 l0 273 l275 0 l0 -273 ZM399 832 l-276 0 q-25 0 -42 -17 q-17 -17 -18 -43 l0 -274 q1 -25 18 -42 q17 -17 42 -18 l276 0 q25 1 42 18 q17 17 18 42 l0 274 q-1 26 -18 43 q-17 17 -42 17 ZM399 499 q0 0 0 -1 l-276 1 l0 273 l276 0 l0 -273 ZM899 330 l-274 0 q-25 -1 -42 -18 q-17 -17 -18 -42 l0 -274 q1 -25 18 -42 q17 -17 42 -18 l180 0 q13 1 21.5 9 q8.5 8 8.5 21 q0 13 -8.5 21.5 q-8.5 8.5 -21.5 8.5 l-180 0 l0 274 l274 0 l0 -183 q1 -13 9.5 -21.5 q8.5 -8.5 21 -8.5 q12.5 0 21 8.5 q8.5 8.5 8.5 21.5 l0 183 q0 25 -17 42 q-17 17 -43 18 Z" /><glyph glyph-name="dashboard1" unicode="&#xe6f7;" d="M152 344 l320 0 l0 400 l-320 0 l0 -400 ZM152 24 l320 0 l0 240 l-320 0 l0 -240 ZM552 24 l320 0 l0 400 l-320 0 l0 -400 ZM552 744 l0 -240 l320 0 l0 240 l-320 0 Z" /><glyph glyph-name="hbar" unicode="&#xe615;" d="M95 763 q-4 -1 -9 -4 l-8 -4 q-10 6 -11.5 -40.5 q-1.5 -46.5 -0.5 -305.5 l1 -329 l5 -15 q15 -42 51 -56 l11 -5 l797 -1 l9 7 q8 7 14 17 q6 10 6 17 q0 7 -3.5 12.5 q-3.5 5.5 -8.5 8.5 q-1 1 -86.5 1.5 q-85.5 0.5 -293.5 0.5 q-251 -1 -318 -0.5 q-67 0.5 -62 3.5 l-9 5 l-32 21 q-3 2 -4.5 5.5 q-1.5 3.5 -6.5 12.5 l-5 9 l0 311 q0 208 -0.5 265 q-0.5 57 -2.5 55 q-4 10 -11.5 12 q-7.5 2 -21.5 -3 ZM252 740 q-15 -2 -24 -8.5 q-9 -6.5 -13 -19.5 q-3 -6 -4 -18 q-1 -12 -1 -52 q0 -46 1.5 -57.5 q1.5 -11.5 9.5 -10.5 q6 1 12 3 q2 1 69.5 2 q67.5 1 234.5 1.5 q167 0.5 235 1.5 q68 1 68 2 q7 2 8.5 15 q1.5 13 1.5 52 l-1 49 l-6 13 q-3 5 -6.5 10 q-3.5 5 -7.5 8 q-1 8 -45 10 q-44 2 -255 1 l-192 0 q-78 -1 -85 -2 ZM240 512 q-19 -5 -27 -23 q-3 -7 -4 -15.5 q-1 -8.5 -1 -35.5 q0 -32 2.5 -45 q2.5 -13 9.5 -21 q2 -12 36 -14 q34 -2 212 -2 q173 0 209 1.5 q36 1.5 39 10.5 q10 7 12.5 19 q2.5 12 2.5 45 q0 18 -0.5 32 q-0.5 14 -1.5 18 q-5 18 -21 28 l-9 4 l-225 0 q-133 1 -182.5 0.5 q-49.5 -0.5 -51.5 -2.5 ZM246 283 q-26 -5 -34 -31 q-3 -12 -4 -36 q-1 -24 1 -42 q4 -33 21 -42 l9 -5 l164 -1 q116 0 144 0.5 q28 0.5 28 3.5 q8 4 14.5 12.5 q6.5 8.5 10.5 20.5 q2 6 2.5 15.5 q0.5 9.5 0.5 28.5 q0 21 -1 29.5 q-1 8.5 -4 15.5 q-4 10 -11.5 19 q-7.5 9 -14.5 12 q-2 2 -36 2.5 q-34 0.5 -126 -0.5 l-112 0 q-46 -1 -52 -2 Z" /><glyph glyph-name="vertical-center" unicode="&#xe605;" d="M228 384 l0 -57 l-171 0 l0 57 l171 0 ZM569 384 l0 -57 l-171 0 l0 57 l171 0 ZM967 384 l0 -57 l-171 0 l0 57 l171 0 ZM455 782 l0 -853 l-284 0 l0 853 l284 0 ZM228 725 l0 -739 l170 0 l0 739 l-170 0 ZM853 612 l0 -512 l-284 0 l0 512 l284 0 ZM796 555 l-170 0 l0 -399 l170 0 l0 399 Z" /><glyph glyph-name="align-top" unicode="&#xe607;" d="M57 839 l910 0 l0 -57 l-910 0 l0 57 ZM57 725 l0 -796 l227 0 l0 796 l-227 0 ZM114 668 l114 0 l0 -682 l-114 0 l0 682 ZM398 725 l0 -569 l228 0 l0 569 l-228 0 ZM455 668 l114 0 l0 -455 l-114 0 l0 455 ZM740 725 l0 -796 l227 0 l0 796 l-227 0 ZM796 668 l114 0 l0 -682 l-114 0 l0 682 Z" /><glyph glyph-name="horizontal-center" unicode="&#xe608;" d="M455 -71 l0 171 l57 0 l0 -171 l-57 0 ZM455 270 l0 171 l57 0 l0 -171 l-57 0 ZM455 668 l0 171 l57 0 l0 -171 l-57 0 ZM57 327 l853 0 l0 -284 l-853 0 l0 284 ZM114 100 l739 0 l0 170 l-739 0 l0 -170 ZM228 725 l512 0 l0 -284 l-512 0 l0 284 ZM284 668 l0 -170 l399 0 l0 170 l-399 0 Z" /><glyph glyph-name="align-bottom" unicode="&#xe60b;" d="M57 -14 l910 0 l0 -57 l-910 0 l0 57 ZM284 43 l0 796 l-227 0 l0 -796 l227 0 ZM114 782 l114 0 l0 -682 l-114 0 l0 682 ZM626 43 l0 569 l-228 0 l0 -569 l228 0 ZM455 555 l114 0 l0 -455 l-114 0 l0 455 ZM967 43 l0 796 l-227 0 l0 -796 l227 0 ZM796 782 l114 0 l0 -682 l-114 0 l0 682 Z" /><glyph glyph-name="align-right" unicode="&#xe612;" d="M910 839 l57 0 l0 -910 l-57 0 l0 910 ZM853 839 l-796 0 l0 -227 l796 0 l0 227 ZM796 782 l0 -114 l-682 0 l0 114 l682 0 ZM853 498 l-569 0 l0 -228 l569 0 l0 228 ZM796 441 l0 -114 l-455 0 l0 114 l455 0 ZM853 156 l-796 0 l0 -227 l796 0 l0 227 ZM796 100 l0 -114 l-682 0 l0 114 l682 0 Z" /><glyph glyph-name="align-left" unicode="&#xe614;" d="M57 839 l57 0 l0 -910 l-57 0 l0 910 ZM171 839 l796 0 l0 -227 l-796 0 l0 227 ZM228 782 l0 -114 l682 0 l0 114 l-682 0 ZM171 498 l569 0 l0 -228 l-569 0 l0 228 ZM228 441 l0 -114 l455 0 l0 114 l-455 0 ZM171 156 l796 0 l0 -227 l-796 0 l0 227 ZM228 100 l0 -114 l682 0 l0 114 l-682 0 Z" /><glyph glyph-name="sortascending" unicode="&#xeab7;" d="M427 427 l0 -86 l341 0 l0 86 l-341 0 ZM427 683 l0 -86 l170 0 l0 86 l-170 0 ZM427 171 l0 -86 l512 0 l0 86 l-512 0 ZM256 597 l107 0 l-150 150 l-149 -150 l107 0 l0 -554 l85 0 l0 554 Z" /><glyph glyph-name="sortdescending" unicode="&#xeab8;" d="M427 341 l0 86 l341 0 l0 -86 l-341 0 ZM427 85 l0 86 l170 0 l0 -86 l-170 0 ZM427 597 l0 86 l512 0 l0 -86 l-512 0 ZM256 171 l107 0 l-150 -150 l-149 150 l107 0 l0 554 l85 0 l0 -554 Z" /><glyph glyph-name="values" unicode="&#xe60e;" d="M391 790 q-1 -3 -3 -11 l-5 -18 q-16 -54 -60 -81.5 q-44 -27.5 -121 -31.5 q-30 0 -35 -8 q-5 -8 -2 -53 l1 -44 l198 -4 l1 -551 l8 -2 q4 0 21 -1 l41 0 l55 1 l0 806 l-49 1 q-27 0 -38.5 -0.5 q-11.5 -0.5 -11.5 -2.5 ZM1556 790 q-29 -2 -52 -9 q-23 -7 -48 -22 q-54 -30 -85 -85.5 q-31 -55.5 -35 -129.5 l-2 -34 l62 0 q41 0 52 1 q11 1 9 5 l4 34 q16 132 138 127 q76 -4 102 -61 q8 -18 7.5 -45 q-0.5 -27 -8.5 -46 q-31 -67 -138 -66 l-38 1 l0 -56 q0 -39 1 -48 q1 -9 6 -7 q26 3 57.5 3.5 q31.5 0.5 45.5 -2.5 q52 -12 79.5 -45 q27.5 -33 27.5 -83 q-1 -92 -92 -125 q-23 -8 -56.5 -8.5 q-33.5 -0.5 -57.5 6.5 q-37 12 -61 45.5 q-24 33.5 -31 86.5 l-4 31 l-120 -2 l1 -38 q0 -34 6.5 -60.5 q6.5 -26.5 20.5 -51.5 q26 -50 65.5 -79.5 q39.5 -29.5 97.5 -43.5 q31 -7 81 -7 q50 0 80 6 q115 29 166 111 q38 64 36 138 q-2 74 -43 133 q-8 11 -23.5 23.5 q-15.5 12.5 -32.5 22.5 l-14 8 l17 16 q35 32 49 64.5 q14 32.5 14 76.5 q-2 108 -79 166 q-77 58 -205 49 ZM916 785 q-23 -6 -53.5 -22 q-30.5 -16 -51.5 -33 q-28 -24 -49 -60 q-21 -36 -29 -73 q-1 -7 -2.5 -25.5 q-1.5 -18.5 -2.5 -38.5 l-2 -47 l122 2 l3 33 q7 110 80 145 q11 6 21.5 8 q10.5 2 28.5 3 q18 1 28.5 -0.5 q10.5 -1.5 24.5 -7.5 q57 -22 77 -72 q9 -24 6.5 -55.5 q-2.5 -31.5 -16.5 -60.5 q-14 -31 -45.5 -59 q-31.5 -28 -103.5 -73 q-62 -40 -92.5 -62 q-30.5 -22 -49.5 -42 q-47 -47 -72.5 -103 q-25.5 -56 -32.5 -128 q-2 -13 -1.5 -19 q0.5 -6 3.5 -7 q37 -3 266 -3 q229 0 264 3 q2 2 2.5 18 q0.5 16 0.5 40 l-1 55 l-193 0 q-81 0 -136 0.5 q-55 0.5 -58 1.5 q-2 5 10 23 q12 18 28 34 q18 19 44.5 38.5 q26.5 19.5 64.5 42.5 q117 69 169.5 122 q52.5 53 70.5 120 q8 28 8 68 q0 40 -8 70 q-20 74 -84 121 q-15 12 -33.5 20.5 q-18.5 8.5 -47.5 17.5 q-19 7 -33.5 8.5 q-14.5 1.5 -51.5 1.5 q-24 0 -44.5 -1.5 q-20.5 -1.5 -28.5 -3.5 Z" /><glyph glyph-name="categories" unicode="&#xe610;" d="M1635 732 q-22 -3 -44 -8.5 q-22 -5.5 -38 -11.5 q-56 -23 -98.5 -69 q-42.5 -46 -62.5 -106 q-10 -28 -14 -49 q-4 -21 -6 -56 q-4 -66 2.5 -119.5 q6.5 -53.5 23.5 -90.5 l8 -21 q2 -7 19.5 -31 q17.5 -24 33.5 -41 q30 -32 64.5 -50.5 q34.5 -18.5 79.5 -28.5 q50 -11 85.5 -10.5 q35.5 0.5 88.5 12.5 q20 4 30.5 7.5 q10.5 3.5 33.5 15.5 q49 24 83 66 q34 42 49 97 q3 11 5 21.5 q2 10.5 2 14.5 l0 9 l-66 0 q-27 -1 -46.5 -2 q-19.5 -1 -20.5 -2 q-1 -1 -3 -6 l-4 -12 q-11 -34 -39 -61 q-28 -27 -62 -37 q-25 -7 -41.5 -8.5 q-16.5 -1.5 -33.5 2.5 q-30 5 -49 14.5 q-19 9.5 -38 26.5 q-22 20 -36.5 49 q-14.5 29 -24.5 70 q-4 21 -3.5 72 q0.5 51 4.5 74 q22 92 82 133 q35 22 84 23.5 q49 1.5 85 -19.5 q27 -18 46 -43 q19 -25 26 -52 l6 -20 l134 -2 l0 12 q-1 14 -8 40 q-7 26 -16 46 q-37 79 -122 121 q-15 8 -30 13.5 q-15 5.5 -45 13.5 q-18 3 -60 4.5 q-42 1.5 -64 -1.5 ZM309 717 q-2 -3 -5.5 -11 q-3.5 -8 -6.5 -17 l-53 -153 l-146 -422 q-16 -46 -17 -52 l-2 -9 l140 2 l43 135 q6 17 6.5 20 q0.5 3 24 4 q23.5 1 95.5 2 q67 1 93 0 q26 -1 27.5 -3.5 q1.5 -2.5 8.5 -23.5 q7 -21 21 -66 l17 -55 l5 -15 l72 0 q45 0 59 1 q14 1 12 4 q-1 6 -8 28.5 q-7 22.5 -13 36.5 l-26 77 l-175 503 q-3 17 -15.5 20 q-12.5 3 -73.5 2 q-55 1 -68.5 -0.5 q-13.5 -1.5 -14.5 -7.5 ZM400 570 q15 -49 21 -68 l53 -170 q3 -8 1.5 -10 q-1.5 -2 -26.5 -2.5 q-25 -0.5 -61 -0.5 q-70 -1 -80 3.5 q-10 4.5 4 34.5 l27 86 l33 107 q11 37 16 40.5 q5 3.5 12 -20.5 ZM781 723 q-1 -4 -2 -99.5 q-1 -95.5 -1 -236.5 l0 -334 l182 1 q111 1 151 2 q40 1 48 4 q48 15 79.5 38.5 q31.5 23.5 47.5 55.5 q12 22 16 39.5 q4 17.5 4 47 q0 29.5 -4.5 47 q-4.5 17.5 -16.5 38.5 q-16 28 -47.5 49.5 q-31.5 21.5 -63.5 26.5 q-8 1 -8.5 7 q-0.5 6 17.5 12 q50 18 77 72 q8 14 10 24.5 q2 10.5 2 34.5 q2 49 -14.5 82.5 q-16.5 33.5 -55.5 56.5 q-19 11 -36 17.5 q-17 6.5 -40 10.5 q-37 3 -180 5 q-143 2 -165 -1 ZM1090 610 q25 -12 36 -29.5 q11 -17.5 11 -45.5 q0 -57 -51 -78 q-19 -9 -43 -12 q-24 -3 -67 -2 l-56 1 l-1 83 l0 61 q0 25 0.5 27.5 q0.5 2.5 17 3 q16.5 0.5 60.5 0.5 q51 -1 67.5 -2.5 q16.5 -1.5 25.5 -6.5 ZM1087 347 q45 -11 66 -43.5 q21 -32.5 10 -74.5 q-8 -27 -32 -47 q-24 -20 -55 -25 q-25 -2 -78 -3.5 q-53 -1.5 -68 -0.5 l-12 3 l0 96 q0 41 1 69 q1 28 2 30 q11 3 78.5 1.5 q67.5 -1.5 87.5 -5.5 Z" /><glyph glyph-name="preview" unicode="&#xe7b9;" d="M512 675 q-228 -19 -362.5 -150 q-134.5 -131 -137.5 -150 q3 -19 137.5 -150 q134.5 -131 362.5 -150 q228 19 362.5 150 q134.5 131 137.5 150 q-3 19 -137.5 150 q-134.5 131 -362.5 150 ZM512 177 q-84 2 -140.5 58.5 q-56.5 56.5 -58.5 140.5 q2 85 58.5 141 q56.5 56 140.5 58 q85 -2 141 -58 q56 -56 58 -141 q-2 -84 -58 -140.5 q-56 -56.5 -141 -58.5 ZM412 376 q0 -20 7.5 -38.5 q7.5 -18.5 21.5 -32.5 q14 -14 32.5 -21.5 q18.5 -7.5 38 -7.5 q19.5 0 38 7.5 q18.5 7.5 32.5 21.5 q14 14 21.5 32.5 q7.5 18.5 7.5 38 q0 19.5 -7.5 38 q-7.5 18.5 -21.5 32.5 q-14 14 -32.5 21.5 q-18.5 7.5 -38 7.5 q-19.5 0 -38 -7.5 q-18.5 -7.5 -32.5 -21.5 q-14 -14 -21.5 -32.5 q-7.5 -18.5 -7.5 -37.5 Z" /><glyph glyph-name="more-vertical-o" unicode="&#xe9b3;" d="M472 704 l80 0 l0 -80 l-80 0 l0 80 ZM472 424 l80 0 l0 -80 l-80 0 l0 80 ZM472 144 l80 0 l0 -80 l-80 0 l0 80 Z" /><glyph glyph-name="rect-text" unicode="&#xe81a;" d="M1022 654 l0 202 l-203 0 l0 -67 l-607 0 l0 67 l-202 0 l0 -202 l67 0 l0 -540 l-67 0 l0 -202 l202 0 l0 67 l607 0 l0 -67 l203 0 l0 202 l-68 0 l0 540 l68 0 ZM887 789 l67 0 l0 -68 l-67 0 l0 68 ZM77 789 l68 0 l0 -68 l-68 0 l0 68 ZM77 -21 l0 68 l68 0 l0 -68 l-68 0 ZM954 -21 l-67 0 l0 68 l67 0 l0 -68 ZM887 114 l-68 0 l0 -67 l-607 0 l0 67 l-67 0 l0 540 l67 0 l0 67 l607 0 l0 -67 l68 0 l0 -540 ZM752 553 q-1 -15 -10.5 -24.5 q-9.5 -9.5 -23.5 -9.5 l-169 0 l0 -304 q0 -14 -9.5 -23.5 q-9.5 -9.5 -24 -9.5 q-14.5 0 -24 9.5 q-9.5 9.5 -9.5 23.5 l0 304 l-169 0 q-14 0 -23.5 9.5 q-9.5 9.5 -9.5 24 q0 14.5 9.5 24 q9.5 9.5 23.5 9.5 l405 0 q14 0 23.5 -9.5 q9.5 -9.5 10.5 -23.5 Z" /><glyph glyph-name="rectangle" unicode="&#xe660;" d="M722 720 q68 -4 123.5 -59.5 q55.5 -55.5 59.5 -122.5 l0 -302 q-3 -71 -57 -125 q-54 -54 -126 -57 l-420 0 q-68 3 -123.5 59 q-55.5 56 -59.5 123 l0 302 q4 67 59.5 122.5 q55.5 55.5 123.5 59.5 l420 0 ZM722 782 l-420 0 q-98 -3 -170 -75 q-72 -72 -75 -169 l0 -302 q4 -94 77.5 -167 q73.5 -73 167.5 -78 l426 0 q94 4 167.5 76 q73.5 72 77.5 169 l0 302 q-8 97 -80.5 169 q-72.5 72 -170.5 75 ZM722 720 q68 -4 123.5 -59.5 q55.5 -55.5 59.5 -122.5 l0 -302 q-3 -71 -57 -125 q-54 -54 -126 -57 l-420 0 q-68 3 -123.5 59 q-55.5 56 -59.5 123 l0 302 q4 67 59.5 122.5 q55.5 55.5 123.5 59.5 l420 0 ZM722 782 q12 0 47.5 0 q35.5 0 -47.5 0 Z" /><glyph glyph-name="tubiaozhizuomoban" unicode="&#xe60f;" d="M353 497 l-116 0 q-20 1 -33 14 q-13 13 -13 33 l0 114 q0 19 13 32 q13 13 33 14 l116 0 q20 -1 33 -14 q13 -13 13 -32 l0 -114 q0 -20 -13 -33 q-13 -13 -33 -14 ZM237 678 q-9 0 -14.5 -6 q-5.5 -6 -5.5 -14 l0 -114 q0 -9 5.5 -14.5 q5.5 -5.5 14.5 -5.5 l116 0 q9 0 14.5 5.5 q5.5 5.5 5.5 14.5 l0 114 q0 8 -5.5 14 q-5.5 6 -14.5 6 l-116 0 ZM570 497 l-117 0 q-19 1 -32.5 14 q-13.5 13 -13.5 33 l0 114 q0 19 13.5 32 q13.5 13 32.5 14 l117 0 q19 -1 32 -14 q13 -13 14 -32 l0 -114 q-1 -20 -14 -33 q-13 -13 -32 -14 ZM453 678 q-8 0 -14 -6 q-6 -6 -6 -14 l0 -114 q0 -9 6 -14.5 q6 -5.5 14 -5.5 l117 0 q8 0 13.5 5.5 q5.5 5.5 6.5 14.5 l0 114 q-1 8 -6.5 14 q-5.5 6 -13.5 6 l-117 0 ZM353 281 l-116 0 q-20 0 -33 13.5 q-13 13.5 -13 32.5 l0 114 q0 20 13 33 q13 13 33 13 l116 0 q20 0 33 -13 q13 -13 13 -33 l0 -114 q0 -19 -13 -32.5 q-13 -13.5 -33 -13.5 ZM237 461 q-9 0 -14.5 -5.5 q-5.5 -5.5 -5.5 -14.5 l0 -114 q0 -8 5.5 -14 q5.5 -6 14.5 -6 l116 0 q9 0 14.5 6 q5.5 6 5.5 14 l0 114 q0 9 -5.5 14.5 q-5.5 5.5 -14.5 5.5 l-116 0 ZM570 281 l-117 0 q-19 0 -32.5 13.5 q-13.5 13.5 -13.5 32.5 l0 114 q0 20 13.5 33 q13.5 13 32.5 13 l117 0 q19 0 32 -13 q13 -13 14 -33 l0 -114 q-1 -19 -14 -32.5 q-13 -13.5 -32 -13.5 ZM453 461 q-8 0 -14 -5.5 q-6 -5.5 -6 -14.5 l0 -114 q0 -8 6 -14 q6 -6 14 -6 l117 0 q8 0 13.5 6 q5.5 6 6.5 14 l0 114 q-1 9 -6.5 14.5 q-5.5 5.5 -13.5 5.5 l-117 0 ZM786 281 l-116 0 q-20 0 -33 13.5 q-13 13.5 -14 32.5 l0 114 q1 20 14 33 q13 13 33 13 l116 0 q20 0 33 -13 q13 -13 13 -33 l0 -114 q0 -19 -13 -32.5 q-13 -13.5 -33 -13.5 ZM670 461 q-9 0 -14.5 -5.5 q-5.5 -5.5 -5.5 -14.5 l0 -114 q0 -8 5.5 -14 q5.5 -6 14.5 -6 l116 0 q8 0 14 6 q6 6 6 14 l0 114 q0 9 -6 14.5 q-6 5.5 -14 5.5 l-116 0 ZM353 65 l-116 0 q-20 0 -33 13 q-13 13 -13 33 l0 114 q0 19 13 32 q13 13 33 14 l116 0 q20 -1 33 -14 q13 -13 13 -32 l0 -114 q0 -20 -13 -33 q-13 -13 -33 -14 l0 1 ZM237 245 q-9 0 -14.5 -6 q-5.5 -6 -5.5 -14 l0 -114 q0 -9 5.5 -14.5 q5.5 -5.5 14.5 -5.5 l116 0 q9 0 14.5 5.5 q5.5 5.5 5.5 14.5 l0 114 q0 8 -5.5 14 q-5.5 6 -14.5 6 l-116 0 ZM570 65 l-117 0 q-19 0 -32.5 13 q-13.5 13 -13.5 33 l0 114 q0 19 13.5 32 q13.5 13 32.5 14 l117 0 q19 -1 32 -14 q13 -13 14 -32 l0 -114 q-1 -20 -14 -33 q-13 -13 -32 -14 l0 1 ZM453 245 q-8 0 -14 -6 q-6 -6 -6 -14 l0 -114 q0 -9 6 -14.5 q6 -5.5 14 -5.5 l117 0 q8 0 13.5 5.5 q5.5 5.5 6.5 14.5 l0 114 q-1 8 -6.5 14 q-5.5 6 -13.5 6 l-117 0 ZM786 65 l-116 0 q-20 0 -33 13 q-13 13 -14 33 l0 114 q1 19 14 32 q13 13 33 14 l116 0 q20 -1 33 -14 q13 -13 13 -32 l0 -114 q0 -20 -13 -33 q-13 -13 -33 -14 l0 1 ZM670 245 q-9 0 -14.5 -6 q-5.5 -6 -5.5 -14 l0 -114 q0 -9 5.5 -14.5 q5.5 -5.5 14.5 -5.5 l116 0 q8 0 14 5.5 q6 5.5 6 14.5 l0 114 q0 8 -6 14 q-6 6 -14 6 l-116 0 ZM721 691 l0 0 ZM708 691 q0 -6 3.5 -9.5 q3.5 -3.5 9 -3.5 q5.5 0 9 3.5 q3.5 3.5 3.5 9 q0 5.5 -3.5 9.5 q-3.5 4 -9 4 q-5.5 0 -9 -4 q-3.5 -4 -3.5 -9 ZM786 704 l-25 0 l0 0 q-11 -2 -11 -13 q0 -11 11 -13 l25 0 q8 0 14 -6 q6 -6 6 -14 l0 -25 q0 -6 3.5 -9.5 q3.5 -3.5 9.5 -3.5 q6 0 9.5 3.5 q3.5 3.5 3.5 9.5 l0 25 q0 19 -13 32 q-13 13 -33 14 ZM832 562 q0 0 0 0 q0 6 -3.5 9.5 q-3.5 3.5 -9 3.5 q-5.5 0 -9.5 -3.5 q-4 -3.5 -4 -9.5 l0 -18 q0 -9 -5.5 -14.5 q-5.5 -5.5 -14.5 -5.5 l-116 0 q-9 0 -14.5 5.5 q-5.5 5.5 -5.5 14.5 l0 114 q0 8 5.5 13.5 q5.5 5.5 14.5 6.5 l14 0 q10 2 10 12.5 q0 10.5 -10 12.5 l-14 1 q-20 -1 -33 -14 q-13 -13 -14 -32 l0 -114 q1 -20 14 -33 q13 -13 33 -14 l116 0 q20 1 33 14 q13 13 13 33 l0 17 l0 1 ZM819 598 l0 0 ZM806 598 q0 -5 4 -9 q4 -4 9.5 -4 q5.5 0 9 4 q3.5 4 3.5 9.5 q0 5.5 -3.5 9 q-3.5 3.5 -9 3.5 q-5.5 0 -9.5 -3.5 q-4 -3.5 -4 -9.5 Z" /><glyph glyph-name="palette" unicode="&#xe9c7;" d="M747 384 q-28 1 -46 19 q-18 18 -18 45 q0 27 18 45 q18 18 45.5 18 q27.5 0 45.5 -18 q18 -18 18 -45 q0 -27 -18 -45 q-18 -18 -45 -19 ZM619 555 q-28 0 -46 18 q-18 18 -18 45.5 q0 27.5 18 45.5 q18 18 45.5 18 q27.5 0 45.5 -18 q18 -18 18 -45.5 q0 -27.5 -18 -45.5 q-18 -18 -45 -18 ZM405 555 q-27 0 -45 18 q-18 18 -18 45.5 q0 27.5 18 45.5 q18 18 45.5 18 q27.5 0 45.5 -18 q18 -18 18 -45.5 q0 -27.5 -18 -45.5 q-18 -18 -46 -18 ZM277 384 q-27 1 -45 19 q-18 18 -18 45 q0 27 18 45 q18 18 45.5 18 q27.5 0 45.5 -18 q18 -18 18 -45 q0 -27 -18 -45 q-18 -18 -46 -19 ZM512 768 q-163 -4 -271.5 -112.5 q-108.5 -108.5 -112.5 -271.5 q4 -163 112.5 -271.5 q108.5 -108.5 271.5 -112.5 q27 1 45 19 q18 18 18 44 q0 26 -15.5 43.5 q-15.5 17.5 -16.5 42.5 q1 28 19 46 q18 18 45 18 l76 0 q90 3 150.5 63 q60.5 60 62.5 151 q-4 145 -112.5 241 q-108.5 96 -271.5 100 Z" /><glyph glyph-name="rounded-rect" unicode="&#xe64c;" d="M64 768 l0 0 l0 -768 q1 -27 19 -45 q18 -18 45 -19 l768 0 q27 1 45 19 q18 18 19 45 l0 768 q-1 27 -19 45 q-18 18 -45 19 l-768 0 q-27 -1 -45 -19 q-18 -18 -19 -45 l0 0 ZM0 768 q1 55 37 91 q36 36 91 37 l768 0 q55 -1 91 -37 q36 -36 37 -91 l0 -768 q-1 -55 -37 -91 q-36 -36 -91 -37 l-768 0 q-55 1 -91 37 q-36 36 -37 91 l0 768 Z" /><glyph glyph-name="unselected" unicode="&#xe603;" d="M512 -96 q-204 5 -339.5 140.5 q-135.5 135.5 -140.5 339.5 q5 204 140.5 339.5 q135.5 135.5 339.5 140.5 q204 -5 339.5 -140.5 q135.5 -135.5 140.5 -339.5 q-5 -204 -140.5 -339.5 q-135.5 -135.5 -339.5 -140.5 ZM512 832 q190 -5 316.5 -131.5 q126.5 -126.5 131.5 -316.5 q-5 -190 -131.5 -316.5 q-126.5 -126.5 -316.5 -131.5 q-190 5 -316.5 131.5 q-126.5 126.5 -131.5 316.5 q5 190 131.5 316.5 q126.5 126.5 316.5 131.5 ZM512 896 q-218 -5 -362.5 -149.5 q-144.5 -144.5 -149.5 -362.5 q5 -218 149.5 -362.5 q144.5 -144.5 362.5 -149.5 q218 5 362.5 149.5 q144.5 144.5 149.5 362.5 q-5 218 -149.5 362.5 q-144.5 144.5 -362.5 149.5 Z" /><glyph glyph-name="selected" unicode="&#xe602;" d="M512 896 q-218 -5 -362.5 -149.5 q-144.5 -144.5 -149.5 -362.5 q5 -218 149.5 -362.5 q144.5 -144.5 362.5 -149.5 q218 5 362.5 149.5 q144.5 144.5 149.5 362.5 q-5 218 -149.5 362.5 q-144.5 144.5 -362.5 149.5 ZM526 209 l-82 -81 l-273 269 l82 80 l191 -188 l327 323 l82 -81 l-327 -322 Z" /><glyph glyph-name="shangyiyiceng" unicode="&#xe64a;" d="M158 488 l342 -157 q6 -2 12 -2 q6 0 12 2 l342 157 q16 8 16 25.5 q0 17.5 -16 25.5 l-342 154 q-12 5 -24 0 l-342 -154 q-16 -8 -16 -25.5 q0 -17.5 16 -25.5 ZM866 283 l-91 41 q-7 3 -13.5 0.5 q-6.5 -2.5 -10 -9.5 q-3.5 -7 -1 -14 q2.5 -7 9.5 -10 l75 -34 l-323 -148 l-323 148 l75 34 q7 3 9.5 10 q2.5 7 -1 14 q-3.5 7 -10 9.5 q-6.5 2.5 -13.5 -0.5 l-91 -41 q-16 -8 -16 -25.5 q0 -17.5 16 -25.5 l342 -157 q6 -3 12 -3 q6 0 12 3 l342 157 q16 8 16 25.5 q0 17.5 -16 25.5 Z" /><glyph glyph-name="xiayiyiceng" unicode="&#xe64b;" d="M134 495 l366 -167 q6 -3 12 -3 q6 0 12 3 l366 167 q17 8 17 27 q0 19 -17 27 l-366 165 q-12 5 -24 0 l-366 -165 q-17 -8 -17 -27 q0 -19 17 -27 ZM512 677 l345 -155 l-345 -158 l-345 158 l345 155 ZM890 276 l-178 80 q-16 7 -33 0 l-167 -77 l-167 77 q-16 7 -33 0 l-178 -80 q-17 -8 -17 -27 q0 -19 17 -28 l366 -167 q6 -3 12 -3 q6 0 12 3 l366 167 q17 9 17 28 q0 19 -17 27 Z" /><glyph glyph-name="bring-upper" unicode="&#xe600;" d="M57 384 l341 0 l0 -57 l-341 0 l0 57 ZM569 384 l341 0 l0 -57 l-341 0 l0 57 ZM512 731 l137 -131 l39 40 l-204 199 l-200 -199 l40 -40 l131 131 l0 -518 l-398 0 l0 -227 l853 0 l0 227 l-398 0 l0 518 ZM853 156 l0 -113 l-739 0 l0 113 l739 0 Z" /><glyph glyph-name="send-next" unicode="&#xe601;" d="M57 839 l0 -227 l398 0 l0 -518 l-131 131 l-40 -40 l200 -199 l204 199 l-39 40 l-137 -131 l0 518 l398 0 l0 227 l-853 0 ZM853 668 l-739 0 l0 114 l739 0 l0 -114 ZM57 498 l341 0 l0 -57 l-341 0 l0 57 ZM569 498 l341 0 l0 -57 l-341 0 l0 57 Z" /><glyph glyph-name="bring-front" unicode="&#xe647;" d="M992 528 l-144 0 l0 160 q0 14 -9 23 q-9 9 -23 9 l-160 0 l0 144 q0 14 -9 23 q-9 9 -23 9 l-592 0 q-14 0 -23 -9 q-9 -9 -9 -23 l0 -592 q0 -14 9 -23 q9 -9 23 -9 l160 0 l0 -144 q0 -14 9 -23 q9 -9 23 -9 l144 0 l0 -160 q0 -14 9 -23 q9 -9 23 -9 l592 0 q14 0 23 9 q9 9 9 23 l0 592 q0 14 -9 23 q-9 9 -23 9 ZM224 240 l400 0 q14 0 23 9 q9 9 9 23 l0 416 l160 0 l0 -592 l-592 0 l0 144 ZM992 -96 l-592 0 l0 160 l416 0 q14 0 23 9 q9 9 9 23 l0 400 l144 0 l0 -592 Z" /><glyph glyph-name="send-bottom" unicode="&#xe648;" d="M992 528 l-144 0 l0 160 q0 14 -9 23 q-9 9 -23 9 l-160 0 l0 144 q0 14 -9 23 q-9 9 -23 9 l-592 0 q-14 0 -23 -9 q-9 -9 -9 -23 l0 -592 q0 -14 9 -23 q9 -9 23 -9 l160 0 l0 -144 q0 -14 9 -23 q9 -9 23 -9 l144 0 l0 -160 q0 -14 9 -23 q9 -9 23 -9 l592 0 q14 0 23 9 q9 9 9 23 l0 592 q0 14 -9 23 q-9 9 -23 9 ZM32 864 l592 0 l0 -592 l-592 0 l0 592 ZM224 240 l400 0 q14 0 23 9 q9 9 9 23 l0 416 l160 0 l0 -592 l-592 0 l0 144 Z" /><glyph glyph-name="confidence-band" unicode="&#xe695;" d="M933 54 l0 -11 q-1 -11 -11 -12 l-774 0 q-19 1 -32 13.5 q-13 12.5 -14 32.5 l0 648 q1 11 12 12 l11 0 q11 -1 12 -12 l0 -648 q1 -11 11 -12 l774 0 q10 -1 11 -11 ZM618 590 l-133 -115 q-7 -5 -14 -1 l-145 87 q-7 4 -14 -2 l-138 -132 q-3 -3 -3 -8 l0 -129 q0 -8 6.5 -10.5 q6.5 -2.5 12.5 2.5 l122 117 q6 5 13 1 l168 -99 q6 -3 12 1 l136 93 q2 2 4 2 l268 69 q8 3 9 11 l0 183 q-1 5 -5 8.5 q-4 3.5 -10 2.5 l-284 -79 q-3 -1 -5 -2 ZM641 351 l-134 -94 q-6 -4 -12 0 l-169 99 q-7 4 -14 -2 l-138 -132 q-3 -3 -3 -8 l0 -103 q1 -10 11 -11 l728 0 q11 1 12 11 l0 299 q-1 5 -5 8.5 q-4 3.5 -10 2.5 l-262 -68 q-2 -1 -4 -2 Z" /><glyph glyph-name="parallel" unicode="&#xe60a;" d="M44 831 l-13 -13 l0 -868 l13 -13 q16 -15 38 -15 q22 0 38 15 q8 8 11 17.5 q3 9.5 3 32.5 l0 36 l181 140 l2 -213 l14 -13 q16 -15 38 -15 q22 0 38 15 l13 13 l0 264 l17 6 l164 44 q5 6 7 -21 q2 -27 1 -134 l0 -159 l14 -13 q15 -15 37.5 -15 q22.5 0 37.5 15 l14 13 l2 281 l177 -212 l0 -34 q0 -22 2.5 -31 q2.5 -9 10.5 -17 q16 -15 38 -15 q22 0 38 15 l13 13 l0 868 l-13 13 q-16 15 -38 15 q-22 0 -37 -15 l-14 -13 l-3 -218 l-176 148 l0 35 q0 22 -2.5 31 q-2.5 9 -10.5 17 q-8 8 -16 11 q-8 3 -23 3 q-50 -1 -51 -49 l0 -23 l-189 0 l0 23 q-1 48 -52 49 q-51 1 -51 -54 l0 -28 l-90 -121 l-91 -121 l-3 297 l-14 13 q-15 15 -37 15 q-22 0 -38 -15 ZM609 565 l0 -166 l-141 115 l-34 28 l-14 13 l0 177 l189 0 l0 -167 ZM317 629 l0 -53 l-107 -57 l-21 -12 q-2 1 15 25 q17 24 45 61 l47 62 l20 26 q1 -1 1 -15 l0 -37 ZM793 619 q32 -26 55 -46 l26 -23 q5 -2 -11.5 -20.5 q-16.5 -18.5 -66.5 -65.5 l-84 -81 l0 149 q0 63 1 105 q1 42 2 44 q2 -1 24 -18 l54 -44 ZM315 293 q-12 7 -86.5 63.5 q-74.5 56.5 -85.5 67.5 q1 2 25.5 16 q24.5 14 60.5 35 l86 46 l1 -112 l1 -81 q0 -33 -2 -35 ZM608 326 q1 -7 -15 -13 q-16 -6 -66 -20 l-93 -25 l-14 -3 l0 227 l95 -78 q55 -45 75 -64 q20 -19 18 -24 ZM889 273 q-10 3 -74.5 30 q-64.5 27 -77.5 33 q0 2 21 23.5 q21 21.5 54 52.5 l76 73 l2 -105 l0 -74 q0 -31 -1 -33 ZM234 292 q36 -26 58.5 -45.5 q22.5 -19.5 21.5 -21.5 q-1 -2 -21 -18 q-20 -16 -49 -39 l-89 -70 l-22 -17 l0 144 q0 100 1.5 123 q1.5 23 7.5 14 l92 -70 ZM834 244 l57 -25 l0 -62 q0 -38 -1.5 -49 q-1.5 -11 -5.5 -6.5 q-4 4.5 -24 29.5 l-122 147 q-6 7 -3.5 6.5 q2.5 -0.5 18.5 -6.5 l81 -34 Z" /><glyph glyph-name="calendar1" unicode="&#xe687;" d="M709 809 q-12 -1 -20 -9 q-8 -8 -8 -19.5 q0 -11.5 8 -19.5 q8 -8 20 -9 q71 -2 119 -49.5 q48 -47.5 50 -118.5 l0 -394 q-2 -72 -50 -119.5 q-48 -47.5 -119 -49.5 l-394 0 q-71 2 -119 49.5 q-48 47.5 -50 119.5 l0 394 q2 71 50 118.5 q48 47.5 119 49.5 q12 1 20 9 q8 8 8 19.5 q0 11.5 -8 19.5 q-8 8 -20 9 q-95 -3 -158.5 -66.5 q-63.5 -63.5 -66.5 -158.5 l0 -394 q3 -95 66.5 -159 q63.5 -64 158.5 -66 l394 0 q95 2 158.5 66 q63.5 64 66.5 159 l0 394 q-3 95 -66.5 158.5 q-63.5 63.5 -158.5 66.5 ZM596 752 l-168 0 q-12 1 -20 9 q-8 8 -8 19.5 q0 11.5 8 19.5 q8 8 20 9 l168 0 q12 -1 20 -9 q8 -8 8 -19.5 q0 -11.5 -8 -19.5 q-8 -8 -20 -9 ZM600 418 q25 19 38.5 47.5 q13.5 28.5 14.5 61.5 q-2 60 -41.5 99.5 q-39.5 39.5 -99.5 41.5 q-60 -2 -99.5 -41.5 q-39.5 -39.5 -41.5 -99.5 q1 -33 14.5 -61.5 q13.5 -28.5 38.5 -47.5 q-37 -23 -58.5 -60.5 q-21.5 -37.5 -22.5 -83.5 q2 -72 49.5 -119.5 q47.5 -47.5 119.5 -49.5 q72 2 119.5 49.5 q47.5 47.5 49.5 119.5 q-1 46 -22.5 83.5 q-21.5 37.5 -58.5 60.5 ZM428 527 q1 36 24.5 60 q23.5 24 59.5 24 q36 0 59.5 -24 q23.5 -24 23.5 -60 q0 -36 -23.5 -59.5 q-23.5 -23.5 -59.5 -23.5 q-36 0 -59.5 23.5 q-23.5 23.5 -24.5 59.5 ZM512 162 q-48 1 -79.5 32.5 q-31.5 31.5 -32.5 79.5 q1 48 32.5 79.5 q31.5 31.5 79.5 33.5 q48 -2 79.5 -33.5 q31.5 -31.5 33.5 -79.5 q-2 -48 -33.5 -79.5 q-31.5 -31.5 -79.5 -32.5 Z" /><glyph glyph-name="waterfall" unicode="&#xe606;" d="M836 791 q-33 -10 -46 -33 q-2 -3 -3 -14.5 q-1 -11.5 -1 -46.5 q0 -43 2.5 -58 q2.5 -15 10.5 -22.5 q8 -7.5 21 -11.5 q13 -4 35.5 -5 q22.5 -1 41.5 1 q19 2 28.5 7 q9.5 5 14.5 14 q4 4 4.5 15 q0.5 11 1.5 52 q1 48 -1.5 63 q-2.5 15 -13 23.5 q-10.5 8.5 -24 12.5 q-13.5 4 -36.5 5 q-26 0 -35 -2 ZM95 761 q-4 -1 -9 -4 l-8 -4 q-10 6 -11.5 -40.5 q-1.5 -46.5 -0.5 -305.5 l1 -329 l5 -15 q15 -42 51 -56 l11 -5 l797 -1 l9 7 q8 6 14 16.5 q6 10.5 6 17.5 q0 7 -3.5 12.5 q-3.5 5.5 -8.5 7.5 q-1 2 -86.5 2.5 q-85.5 0.5 -293.5 0.5 q-251 -1 -318 -0.5 q-67 0.5 -62 3.5 q-10 5 -23 14.5 q-13 9.5 -19 14.5 q-3 4 -6 8 q-3 4 -5 8 l-4 8 l0 311 q0 208 -0.5 265 q-0.5 57 -2.5 55 q-4 10 -11.5 12 q-7.5 2 -21.5 -3 ZM635 744 q-33 -10 -45 -33 q-3 -4 -3.5 -15 q-0.5 -11 -0.5 -46 q-1 -44 1.5 -58.5 q2.5 -14.5 10.5 -22 q8 -7.5 21 -11.5 q13 -4 35.5 -5 q22.5 -1 41.5 1 q19 2 28.5 6.5 q9.5 4.5 14.5 14.5 q4 4 5 15 q1 11 1 52 q1 48 -1.5 63 q-2.5 15 -13 23.5 q-10.5 8.5 -23.5 12.5 q-13 4 -36 5 q-27 0 -36 -2 ZM436 680 q-33 -10 -45 -32 q-3 -4 -3.5 -15 q-0.5 -11 -0.5 -47 q0 -43 2.5 -57.5 q2.5 -14.5 10 -22.5 q7.5 -8 20.5 -12 q13 -4 36 -5 q23 -1 41.5 1 q18.5 2 28.5 7 q10 5 15 14 q3 5 4 15.5 q1 10.5 1 51.5 q1 48 -1.5 63 q-2.5 15 -12.5 24 q-10 9 -23.5 13 q-13.5 4 -36.5 4 q-27 1 -36 -2 ZM225 589 q-8 -2 -15.5 -8 q-7.5 -6 -11.5 -13 l-4 -9 l-1 -193 q0 -102 0 -151 q0 -49 2 -54 q4 -22 24 -31 q7 -3 15.5 -4 q8.5 -1 34.5 -1 q32 0 45 2.5 q13 2.5 22 9.5 q11 3 13.5 34 q2.5 31 1.5 185 q1 151 -1 183.5 q-2 32.5 -11 35.5 q-7 11 -18.5 13.5 q-11.5 2.5 -46.5 2.5 l-32 -1 q-14 -1 -17 -1 Z" /><glyph glyph-name="duplex" unicode="&#xe6eb;" d="M896 764 q-45 41 -151.5 54.5 q-106.5 13.5 -214.5 12.5 l-57 1 q-82 1 -169 -8.5 q-87 -9.5 -141 -36.5 q-71 -51 -87.5 -182 q-16.5 -131 -10.5 -219 q-6 -89 10.5 -221 q16.5 -132 87.5 -184 q54 -27 141 -36.5 q87 -9.5 168 -8.5 l58 1 q108 -1 214.5 12.5 q106.5 13.5 151.5 54.5 q44 55 55 177.5 q11 122.5 9 202.5 q2 80 -9 202.5 q-11 122.5 -55 177.5 ZM863 35 q-10 -9 -27 -16 l0 308 q0 13 -8.5 22 q-8.5 9 -21.5 9 l-62 0 q-13 0 -22 -9 q-9 -9 -9 -22 l0 -335 q-26 -3 -51 -5 l0 155 q-1 13 -9.5 22 q-8.5 9 -21.5 9 l-62 0 q-13 0 -22 -9 q-9 -9 -9 -22 l0 -159 l-52 -1 l0 237 q0 13 -8.5 22 q-8.5 9 -21.5 9 l-62 0 q-13 0 -22 -9 q-9 -9 -9 -22 l0 -234 q-26 2 -52 5 l0 384 q0 13 -8.5 21.5 q-8.5 8.5 -21.5 8.5 l-62 0 q-13 0 -22 -8.5 q-9 -8.5 -9 -21.5 l0 -354 l-2 1 q-61 53 -69.5 196.5 q-8.5 143.5 -5.5 168.5 q0 7 0 61 q0 54 8 123 q16 8 76.5 12.5 q60.5 4.5 153.5 -29.5 q59 -24 117.5 -71.5 q58.5 -47.5 85.5 -115.5 l27 -73 l17 75 q21 81 54 120 q33 39 63 51 l0 -55 q0 -9 6.5 -15.5 q6.5 -6.5 15 -6.5 q8.5 0 14.5 7 l81 81 q7 6 7 14.5 q0 8.5 -7 15.5 l-81 81 q-6 6 -14.5 6 q-8.5 0 -15 -6.5 q-6.5 -6.5 -6.5 -14.5 l0 -57 q-34 -10 -74 -44.5 q-40 -34.5 -71 -108.5 q-38 57 -93 97.5 q-55 40.5 -109 62.5 q-84 32 -146 33 q-62 1 -94 -9 q8 45 22.5 79 q14.5 34 37.5 48 q52 25 138 32.5 q86 7.5 149 6.5 l57 -1 q45 2 164.5 -7 q119.5 -9 167.5 -45 q39 -59 46.5 -195.5 q7.5 -136.5 5.5 -153.5 q2 -17 -5.5 -153.5 q-7.5 -136.5 -45.5 -195.5 Z" /><glyph glyph-name="edit-2" unicode="&#xe652;" d="M321 199 l52 114 l66 -63 l-118 -51 ZM411 360 l343 331 l77 -75 l-343 -330 l-77 74 ZM926 708 l-47 -46 l-77 76 l47 44 q6 6 14.5 5 q8.5 -1 15.5 -7 l45 -43 q8 -8 8 -17 q-1 -7 -6 -12 ZM326 367 q-1 -1 -2 -3 l-49 -172 q-4 -17 8 -29 q9 -8 22 -9 q4 1 7 2 l179 46 q4 0 6 2 l476 459 q22 21 22 52 q0 18 -7.5 34 q-7.5 16 -20.5 29 l-45 43 q-28 27 -65 27 q-33 0 -54 -21 l-476 -458 q-1 -1 -1 -2 ZM127 864 q-40 -1 -67 -27.5 q-27 -26.5 -28 -65.5 l0 -773 q1 -39 28 -65.5 q27 -26.5 67 -27.5 l755 0 q40 1 67 27.5 q27 26.5 28 65.5 l0 493 l-81 0 l0 -423 q-1 -36 -24.5 -59 q-23.5 -23 -59.5 -24 l-615 0 q-36 1 -59.5 24 q-23.5 23 -24.5 59 l0 634 q1 35 24.5 58 q23.5 23 59.5 24 l429 0 l0 80 l-499 0 Z" /><glyph glyph-name="unlink" unicode="&#xe6c3;" d="M143 629 l89 165 q55 79 142.5 97 q87.5 18 167.5 -32 l-35 -53 q-57 36 -119.5 23 q-62.5 -13 -100.5 -68 l-89 -165 q-37 -59 -24.5 -121.5 q12.5 -62.5 67.5 -100.5 q56 -36 111.5 -27 q55.5 9 99.5 61 l49 -41 q-36 -43 -79.5 -64.5 q-43.5 -21.5 -90.5 -21.5 q-64 0 -125 39 q-77 55 -95 142 q-18 87 32 167 ZM264 445 l-8 -8 l45 -46 l8 9 q49 46 112.5 46 q63.5 0 112.5 -46 q47 -49 47 -112.5 q0 -63.5 -47 -112.5 l-192 -193 q-49 -46 -112.5 -46 q-63.5 0 -112.5 46 q-47 49 -47 112.5 q0 63.5 47 112.5 l67 68 l-45 45 l-67 -68 q-65 -68 -65 -157 q0 -89 65 -158 q33 -32 73.5 -48.5 q40.5 -16.5 84 -16.5 q43.5 0 84 16.5 q40.5 16.5 73.5 48.5 l192 193 q66 68 66 157 q0 89 -66 158 q-68 65 -157 65 q-89 0 -158 -65 ZM705 511 l259 0 l0 63 l-259 0 l0 -63 ZM675 425 l124 -72 l32 55 l-124 72 l-32 -55 ZM691 883 l-100 -175 l55 -31 l101 174 l-56 32 ZM1017 783 l-32 55 l-317 -184 l31 -55 l318 184 Z" /><glyph glyph-name="jiedian" unicode="&#xe7be;" d="M847 160 q-21 -1 -39 -8 q-18 -7 -32 -20 l-171 123 q16 33 17 73 q-1 55 -31 97 l200 200 q25 -15 56 -17 q47 2 79 33.5 q32 31.5 33 79.5 q-1 47 -33 79 q-32 32 -79 33 q-48 -1 -80 -33 q-32 -32 -33 -79 q1 -31 17 -56 l-200 -200 q-42 30 -97 31 q-49 0 -87.5 -24.5 q-38.5 -24.5 -60.5 -64.5 l-135 45 q-5 19 -19.5 31.5 q-14.5 12.5 -34.5 12.5 q-24 0 -40 -16 q-16 -16 -16 -40 q0 -24 16 -39.5 q16 -15.5 40 -16.5 q21 1 37 14 l134 -44 q-2 -13 -3 -26 q2 -72 49.5 -119.5 q47.5 -47.5 119.5 -48.5 q35 0 65 13 q30 13 53 36 l170 -122 q-7 -19 -8 -40 q1 -47 33 -79 q32 -32 80 -33 q47 1 79 33 q32 32 33 79 q-1 48 -33 79.5 q-32 31.5 -79 33.5 Z" /><glyph glyph-name="china" unicode="&#xe609;" d="M902 749 q10 0 20 0 l25 0 l10 -19 q5 -8 9 -13 q15 10 29.5 18.5 q14.5 8.5 28.5 13.5 l0 -32 l-6 0 l0 -51 q-14 -1 -19 -3.5 q-5 -2.5 -13 -3.5 q4 -13 5 -27 q1 -14 1 -37 q-5 1 -9.5 3.5 q-4.5 2.5 -9.5 3.5 q-7 -10 -5.5 -15.5 q1.5 -5.5 -20.5 -10.5 l0 -19 l-25 0 q-10 -13 -15.5 -20 q-5.5 -7 -10.5 -25 q-27 -1 -39 -11.5 q-12 -10.5 -25 -20.5 l0 26 l6 0 l0 25 l-19 0 q-5 -14 -13.5 -27.5 q-8.5 -13.5 -18.5 -23.5 l-19 0 q-4 -5 0.5 -6 q4.5 -1 5.5 0 q8 -9 7.5 -8.5 q-0.5 0.5 12.5 1.5 l0 -19 l19 0 q0 5 3 9.5 q3 4.5 3 9.5 q10 0 20.5 -3 q10.5 -3 24.5 -3 l0 -19 l-26 0 q-9 -17 -15 -21.5 q-6 -4.5 -10 -30.5 q14 -9 23 -20.5 q9 -11.5 9 -30.5 l19 0 q0 -5 -3 -12.5 q-3 -7.5 -3 -12.5 l6 0 l0 -7 l-6 0 l0 -6 q2 -4 14 -13 q12 -9 5 -32 q-5 0 -10 -3 q-5 -3 -9 -3 l0 -26 l-7 0 q-4 -9 -5 -17.5 q-1 -8.5 -1 -27.5 l-19 0 l0 -19 l-20 0 q-4 -19 -14.5 -29.5 q-10.5 -10.5 -29.5 -15.5 l0 -6 l-32 0 l0 -19 q-13 4 -8.5 7 q4.5 3 1.5 12 l-6 0 l0 -19 q-11 -9 -33 -12 q-22 -3 -38 -8 l0 -6 q18 -13 15.5 -23 q-2.5 -10 -8.5 -28 q-10 -1 -22.5 -3.5 q-12.5 -2.5 -22.5 -3.5 l0 32 q5 1 12.5 3.5 q7.5 2.5 13.5 3.5 q-1 5 -3.5 12.5 q-2.5 7.5 -3.5 12.5 q-14 1 -28.5 3.5 q-14.5 2.5 -28.5 3.5 l0 25 q-27 5 -46.5 3 q-19.5 -2 -56.5 -3 l0 -32 l-6 0 q-13 17 -16 14.5 q-3 -2.5 -16 5.5 q-4 9 -7 12 q-3 3 -12 7 l0 6 l6 0 q0 5 -3 13.5 q-3 8.5 -3 18.5 l-26 0 q4 18 7 25 q3 7 12 20 l7 0 q8 15 1.5 32 q-6.5 17 -8.5 32 q-18 -12 -19 -12.5 q-1 -0.5 0 -13.5 q-17 5 -22.5 10 q-5.5 5 -22.5 10 q-9 -15 -24.5 -20.5 q-15.5 -5.5 -39.5 -5.5 q-4 9 -6 14 l-7 18 q-14 0 -24.5 3 q-10.5 3 -19.5 3 l0 -19 q-15 4 -16 7 q-1 3 9 12 q-14 1 -28.5 3.5 q-14.5 2.5 -28.5 3.5 q-1 5 -3.5 9.5 q-2.5 4.5 -3.5 9.5 q-9 4 -15 6 q-6 2 -10 7 q-12 19 -19.5 32.5 q-7.5 13.5 -38.5 18.5 q-10 22 -17.5 34 q-7.5 12 -8.5 43 q5 -1 10 -3.5 q5 -2.5 10 -3.5 l0 52 l-7 0 q1 4 3.5 9 q2.5 5 3.5 10 l-7 0 q-19 11 -25.5 13.5 q-6.5 2.5 -6.5 37.5 l-19 0 l0 19 q5 0 9.5 -3 q4.5 -3 9.5 -3 l0 25 l-12 5 q-3 1 -7 15 q13 9 23 15 q10 6 28 10 l0 -19 q20 5 43 10 l47 9 q6 25 10.5 29.5 q4.5 4.5 -4.5 34.5 l26 0 l0 7 q5 -1 9.5 -3.5 q4.5 -2.5 9.5 -3.5 l0 19 q5 1 9.5 3.5 q4.5 2.5 9.5 3.5 l0 6 q4 8 3.5 5.5 q-0.5 -2.5 3.5 1.5 q8 -14 11 -15 q3 -1 21 -5 l0 26 l6 0 q9 9 14 12 q5 3 18 7 q11 -25 25 -37.5 q14 -12.5 20 -51.5 q-9 -8 -8 -7.5 q1 0.5 1 -12.5 q34 -4 53 -20.5 q19 -16.5 24 -49.5 q19 0 38.5 -3 q19.5 -3 38.5 -3 l0 -7 l19 0 l0 -6 q10 -1 20.5 -3.5 q10.5 -2.5 24.5 -3.5 l0 -6 q5 0 12.5 3 q7.5 3 13.5 3 l0 7 l57 0 q10 9 15.5 16 q5.5 7 10.5 16 l19 0 q-1 5 -5.5 13.5 q-4.5 8.5 -0.5 18.5 l6 0 l0 6 q26 -8 35 -3.5 q9 4.5 35 10.5 l0 19 q14 0 26 3 q12 3 26 3 q-1 5 -3.5 13 q-2.5 8 -3.5 13 q-23 -1 -32.5 -5 q-9.5 -4 -18.5 5 l-6 0 q0 10 3 22.5 q3 12.5 3 22.5 l32 0 l0 32 l6 0 l0 19 l7 0 q4 14 -1 20.5 q-5 6.5 -6 11.5 l7 0 q14 14 33.5 17 q19.5 3 43.5 2 q10 -23 22 -39.5 q12 -16.5 22 -43.5 ZM877 179 q5 0 9.5 -3 q4.5 -3 9.5 -3 l-19 -77 l-7 0 q-9 16 -12 20.5 q-3 4.5 -7 30.5 q5 5 13 13.5 q8 8.5 13 18.5 Z" /><glyph glyph-name="chexiao" unicode="&#xe604;" d="M532 530 l-7 0 l0 143 q0 41 -19.5 54.5 q-19.5 13.5 -48.5 -9.5 l-352 -283 q-28 -24 -28 -55 q0 -31 28 -55 l349 -280 q29 -22 49.5 -6 q20.5 16 21.5 51 l0 151 l53 0 q115 0 201 -48.5 q86 -48.5 140 -144.5 q11 -17 19.5 -15.5 q8.5 1.5 8.5 15.5 q-7 179 -126 326 q-119 147 -289 156 Z" /><glyph glyph-name="qianjin" unicode="&#xe646;" d="M919 457 l-352 283 q-29 22 -48.5 8.5 q-19.5 -13.5 -19.5 -54.5 l0 -143 l-7 0 q-170 -9 -289 -156 q-119 -147 -126 -326 q0 -14 8.5 -15 q8.5 -1 19.5 15 q54 96 140 144.5 q86 48.5 201 49.5 l53 0 l0 -151 q1 -36 21.5 -51.5 q20.5 -15.5 49.5 5.5 l349 280 q28 24 28 55.5 q0 31.5 -28 55.5 Z" /><glyph glyph-name="fuzhi" unicode="&#xe61a;" d="M443 385 l0 192 l-64 64 l0 -320 l320 0 l-64 64 l-192 0 ZM379 577 l256 -256 l0 -193 l64 0 l0 219 l-294 294 l-26 0 l0 -64 ZM635 0 l-449 0 l0 577 l128 0 l0 64 l-192 0 l0 -705 l577 0 l0 128 l-64 0 l0 -64 ZM891 604 l-229 230 l-283 0 l0 -129 l64 0 l0 65 l192 0 l192 -193 l0 -385 l-64 0 l0 -64 l128 0 l0 476 ZM635 128 l64 0 l0 -64 l-64 0 l0 64 ZM314 641 l65 0 l0 -64 l-65 0 l0 64 ZM699 641 l0 129 l-64 64 l0 -257 l256 0 l-64 64 l-128 0 ZM250 513 l64 0 l0 -64 l-64 0 l0 64 ZM250 385 l64 0 l0 -64 l-64 0 l0 64 ZM250 257 l321 0 l0 -65 l-321 0 l0 65 ZM250 128 l321 0 l0 -64 l-321 0 l0 64 Z" /><glyph glyph-name="niantie" unicode="&#xe61d;" d="M646 716 l-111 0 l0 56 q0 23 -16 38.5 q-16 15.5 -39 16.5 l-111 0 q-23 -1 -38.5 -16.5 q-15.5 -15.5 -16.5 -38.5 l0 -56 l-110 0 l0 -126 l442 0 l0 126 ZM480 716 l-111 0 l0 56 l111 0 l0 -56 ZM756 689 q0 11 -8 19 q-8 8 -19 8 l-56 0 l0 -55 l28 0 l0 -96 l-526 -1 l1 97 l0 55 l-55 0 q-12 0 -20 -8 q-8 -8 -8 -19 l0 -645 q0 -12 8 -20 q8 -8 20 -8 l264 0 l0 -75 l376 0 l161 153 l0 407 l-166 0 l0 188 ZM762 20 l0 72 l82 0 l-82 -72 ZM867 147 l-160 0 l0 -150 l-267 0 l0 449 l427 0 l0 -299 ZM512 327 l284 0 l0 -55 l-284 0 l0 55 ZM512 171 l144 0 l0 -56 l-144 0 l0 56 Z" /><glyph glyph-name="text" unicode="&#xe63a;" d="M853 597 l-256 0 l0 -597 l-170 0 l0 597 l-256 0 l0 128 l682 0 l0 -128 Z" /><glyph glyph-name="found" unicode="&#xe60d;" d="M129 -27 q-30 0 -51 7.5 q-21 7.5 -31 24.5 q-34 57 81 170 l36 -36 q-51 -52 -64 -78 q-13 -26 -9 -30 q21 -24 181.5 20 q160.5 44 400.5 177 q101 59 187.5 120 q86.5 61 149.5 118 q69 65 86.5 96.5 q17.5 31.5 12.5 36.5 q-8 5 -51.5 4.5 q-43.5 -0.5 -104.5 -14.5 l-12 50 q11 4 94 14 q83 10 118 -29 q38 -63 -109 -196 q-64 -59 -153 -121.5 q-89 -62.5 -193 -122.5 q-142 -82 -302.5 -145 q-160.5 -63 -266.5 -66 ZM563 -102 q-206 5 -343.5 142.5 q-137.5 137.5 -142.5 343.5 q5 206 142.5 343.5 q137.5 137.5 343.5 142.5 q207 -5 344 -142.5 q137 -137.5 143 -343.5 q-6 -206 -143 -343.5 q-137 -137.5 -344 -142.5 ZM563 819 q-184 -5 -307 -127.5 q-123 -122.5 -128 -307.5 q5 -185 128 -307.5 q123 -122.5 307 -127.5 q185 5 308 127.5 q123 122.5 127 307.5 q-4 185 -127 307.5 q-123 122.5 -308 127.5 ZM265 107 q-33 0 -64 14 q-10 5 -13.5 14.5 q-3.5 9.5 1 19 q4.5 9.5 14 13.5 q9.5 4 19.5 0 q22 -11 46 -10 q24 1 46 12 q37 20 49 59.5 q12 39.5 -7 75.5 q-21 37 -60.5 49 q-39.5 12 -78.5 -7 q-10 -5 -20 -2 q-10 3 -15 12.5 q-5 9.5 -2 19.5 q3 10 13 15 q58 29 117 11 q59 -18 91 -73 q15 -27 18 -56.5 q3 -29.5 -6 -59 q-9 -29.5 -28.5 -52.5 q-19.5 -23 -47.5 -37 q-34 -18 -72 -18 ZM205 461 q-33 1 -54.5 22.5 q-21.5 21.5 -21.5 54 q0 32.5 21.5 54.5 q21.5 22 54 22 q32.5 0 54.5 -22 q22 -22 22 -54.5 q0 -32.5 -22 -54 q-22 -21.5 -54 -22.5 ZM205 563 q-11 0 -18.5 -7.5 q-7.5 -7.5 -7.5 -18 q0 -10.5 7.5 -18 q7.5 -7.5 18.5 -7.5 q11 0 18 7.5 q7 7.5 7 18 q0 10.5 -7 18 q-7 7.5 -18 7.5 ZM589 461 q-87 2 -145 60 q-58 58 -60 145 q2 87 60 144.5 q58 57.5 145 59.5 q11 0 18 -7 q7 -7 7 -18 q0 -11 -7 -18.5 q-7 -7.5 -18 -7.5 q-65 -1 -108.5 -44.5 q-43.5 -43.5 -45.5 -108.5 q2 -66 45.5 -109 q43.5 -43 108.5 -45 q65 2 108.5 45 q43.5 43 44.5 109 q0 33 -14 64 q-4 10 -0.5 19.5 q3.5 9.5 13.5 14 q10 4.5 19.5 1 q9.5 -3.5 14.5 -13.5 q19 -41 19 -85 q-3 -87 -60.5 -145 q-57.5 -58 -144.5 -60 ZM772 -30 q-25 0 -47 11.5 q-22 11.5 -38 33.5 q-23 36 -15 77 q8 41 43 65 q35 24 76.5 16 q41.5 -8 65.5 -43 q6 -9 4 -19 q-2 -10 -11 -16.5 q-9 -6.5 -19 -4.5 q-10 2 -16 11 q-12 18 -33 22 q-21 4 -38.5 -8 q-17.5 -12 -21.5 -32.5 q-4 -20.5 8 -38.5 q12 -18 32 -22 q20 -4 39 8 q9 6 15 15.5 q6 9.5 16 12 q10 2.5 19 -3 q9 -5.5 11.5 -15.5 q2.5 -10 -2.5 -20 q-12 -19 -31 -31 q-26 -18 -57 -18 ZM845 461 l0 0 ZM794 461 q0 22 14.5 36 q14.5 14 36.5 14 q22 0 36 -14 q14 -14 14 -36 q0 -22 -14 -36.5 q-14 -14.5 -36 -14.5 q-22 0 -36.5 14.5 q-14.5 14.5 -14.5 36.5 Z" /><glyph glyph-name="move1" unicode="&#xe651;" d="M572 264 l0 -180 l120 0 l-180 -180 l-180 180 l120 0 l0 180 l120 0 ZM452 504 l0 180 l-120 0 l180 180 l180 -180 l-120 0 l0 -180 l-120 0 ZM392 324 l-180 0 l0 -120 l-180 180 l180 180 l0 -120 l180 0 l0 -120 ZM632 444 l180 0 l0 120 l180 -180 l-180 -180 l0 120 l-180 0 l0 120 Z" /><glyph glyph-name="table" unicode="&#xe662;" d="M959 91 q-1 -36 -25.5 -60.5 q-24.5 -24.5 -60.5 -25.5 l-723 0 q-37 1 -61 25.5 q-24 24.5 -25 60.5 l0 586 q1 36 25 60.5 q24 24.5 61 25.5 l723 0 q36 -1 60.5 -25.5 q24.5 -24.5 25.5 -60.5 l0 -586 ZM339 608 q0 7 -5 12 q-5 5 -12 5 l-172 0 q-7 0 -12 -5 q-5 -5 -5 -12 l0 -104 q0 -7 5 -12 q5 -5 12 -5 l172 0 q7 0 12 5 q5 5 5 12 l0 104 ZM339 401 q0 8 -5 12.5 q-5 4.5 -12 4.5 l-172 0 q-7 0 -12 -4.5 q-5 -4.5 -5 -12.5 l0 -103 q0 -7 5 -12 q5 -5 12 -5 l172 0 q7 0 12 5 q5 5 5 12 l0 103 ZM339 195 q0 7 -5 12 q-5 5 -12 5 l-172 0 q-7 0 -12 -5 q-5 -5 -5 -12 l0 -104 q0 -7 5 -12 q5 -5 12 -5 l172 0 q7 0 12 5 q5 5 5 12 l0 104 ZM615 608 q-1 7 -5.5 12 q-4.5 5 -12.5 5 l-172 0 q-7 0 -12 -5 q-5 -5 -5 -12 l0 -104 q0 -7 5 -12 q5 -5 12 -5 l172 0 q8 0 12.5 5 q4.5 5 5.5 12 l0 104 ZM615 401 q-1 8 -5.5 12.5 q-4.5 4.5 -12.5 4.5 l-172 0 q-7 0 -12 -4.5 q-5 -4.5 -5 -12.5 l0 -103 q0 -7 5 -12 q5 -5 12 -5 l172 0 q8 0 12.5 5 q4.5 5 5.5 12 l0 103 ZM615 195 q-1 7 -5.5 12 q-4.5 5 -12.5 5 l-172 0 q-7 0 -12 -5 q-5 -5 -5 -12 l0 -104 q0 -7 5 -12 q5 -5 12 -5 l172 0 q8 0 12.5 5 q4.5 5 5.5 12 l0 104 ZM890 608 q0 7 -5 12 q-5 5 -12 5 l-172 0 q-8 0 -12.5 -5 q-4.5 -5 -5.5 -12 l0 -104 q1 -7 5.5 -12 q4.5 -5 12.5 -5 l172 0 q7 0 12 5 q5 5 5 12 l0 104 ZM890 401 q0 8 -5 12.5 q-5 4.5 -12 4.5 l-172 0 q-8 0 -12.5 -4.5 q-4.5 -4.5 -5.5 -12.5 l0 -103 q1 -7 5.5 -12 q4.5 -5 12.5 -5 l172 0 q7 0 12 5 q5 5 5 12 l0 103 ZM890 195 q0 7 -5 12 q-5 5 -12 5 l-172 0 q-8 0 -12.5 -5 q-4.5 -5 -5.5 -12 l0 -104 q1 -7 5.5 -12 q4.5 -5 12.5 -5 l172 0 q7 0 12 5 q5 5 5 12 l0 104 Z" /><glyph glyph-name="calendar" unicode="&#xe626;" d="M352 563 q-14 1 -23 10 q-9 9 -9 22 l0 96 q0 14 9 23 q9 9 23 9 q14 0 23 -9 q9 -9 9 -23 l0 -96 q0 -13 -9 -22 q-9 -9 -23 -10 ZM787 671 l-51 0 l0 -72 q0 -33 -15.5 -55 q-15.5 -22 -48 -22 q-32.5 0 -48.5 22 q-16 22 -16 55 l0 72 l-192 0 l0 -72 q0 -33 -16 -55 q-16 -22 -48 -22 q-32 0 -48 22 q-16 22 -16 55 l0 72 l-13 0 q-55 -2 -99.5 -43.5 q-44.5 -41.5 -47.5 -96.5 l0 -383 q3 -54 47.5 -85 q44.5 -31 99.5 -31 l512 0 q53 0 81 31 q28 31 28 85 l0 383 q0 55 -28 96.5 q-28 41.5 -81 43.5 ZM831 148 q1 -27 -10 -39.5 q-11 -12.5 -37 -12.5 l-512 0 q-28 0 -53 12.5 q-25 12.5 -27 39.5 l0 332 l639 0 l0 -332 ZM672 563 q13 1 22 10 q9 9 10 22 l0 96 q-1 14 -10 23 q-9 9 -22.5 9 q-13.5 0 -22.5 -9 q-9 -9 -9 -23 l0 -96 q0 -13 9 -22 q9 -9 23 -10 ZM256 415 l128 0 l0 -96 l-128 0 l0 96 ZM448 415 l128 0 l0 -96 l-128 0 l0 96 ZM640 415 l128 0 l0 -96 l-128 0 l0 96 ZM256 256 l128 0 l0 -96 l-128 0 l0 96 ZM448 256 l128 0 l0 -96 l-128 0 l0 96 ZM640 256 l128 0 l0 -96 l-128 0 l0 96 Z" /><glyph glyph-name="area-chart" unicode="&#xe62a;" d="M130 223 l0 -191 q4 -27 31.5 -45 q27.5 -18 31.5 -19 l702 0 q4 2 32 2 q28 0 33 -20 q-2 -22 -15.5 -33.5 q-13.5 -11.5 -15.5 -11.5 l-772 1 q-66 7 -80 51.5 q-14 44.5 -11 50.5 l0 624 q3 23 22.5 30 q19.5 7 22.5 7 q20 -4 20 -31.5 q0 -27.5 -1 -31.5 l0 -383 ZM842 530 l118 -495 l-769 0 l0 318 l207 318 l266 -318 l178 177 Z" /><glyph glyph-name="scatter-chart" unicode="&#xe632;" d="M127 340 l0 -191 q4 -27 32 -45.5 q28 -18.5 32 -18.5 l701 0 q4 1 32.5 1 q28.5 0 32.5 -20 q-2 -21 -15.5 -32.5 q-13.5 -11.5 -15.5 -11.5 l-771 1 q-66 6 -80 51 q-14 45 -12 51 l0 624 q3 23 23 30 q20 7 23 6 q20 -4 20 -31.5 q0 -27.5 -2 -31.5 l0 -382 ZM731 329 l0 0 ZM654 329 q1 -32 23 -54 q22 -22 54.5 -22 q32.5 0 54.5 22 q22 22 22 54.5 q0 32.5 -22 54.5 q-22 22 -54.5 22 q-32.5 0 -54.5 -22 q-22 -22 -23 -55 ZM602 441 q30 1 49.5 20.5 q19.5 19.5 19.5 48.5 q0 29 -19.5 48.5 q-19.5 19.5 -49 19.5 q-29.5 0 -49 -19.5 q-19.5 -19.5 -19.5 -48.5 q0 -29 19.5 -48.5 q19.5 -19.5 48.5 -20.5 ZM654 613 q29 1 48.5 20.5 q19.5 19.5 19.5 48.5 q0 29 -19.5 48.5 q-19.5 19.5 -48.5 19.5 q-29 0 -48.5 -19.5 q-19.5 -19.5 -19.5 -48.5 q0 -29 19.5 -48.5 q19.5 -19.5 48.5 -20.5 ZM869 665 q26 1 43 18 q17 17 17 42.5 q0 25.5 -17 42.5 q-17 17 -42.5 17 q-25.5 0 -42.5 -17 q-17 -17 -17 -42.5 q0 -25.5 17 -42.5 q17 -17 42 -18 ZM826 459 q29 0 48.5 19.5 q19.5 19.5 19.5 49 q0 29.5 -19.5 48.5 q-19.5 19 -48.5 19 q-29 0 -48.5 -19 q-19.5 -19 -19.5 -48.5 q0 -29.5 19.5 -49 q19.5 -19.5 48.5 -19.5 ZM189 278 q1 -26 18 -43 q17 -17 42.5 -17 q25.5 0 42.5 17 q17 17 17 42.5 q0 25.5 -17 42.5 q-17 17 -42.5 17 q-25.5 0 -42.5 -17 q-17 -17 -18 -42 ZM362 372 q36 1 60.5 25.5 q24.5 24.5 24.5 61 q0 36.5 -24.5 61 q-24.5 24.5 -61 24.5 q-36.5 0 -61 -24.5 q-24.5 -24.5 -24.5 -61 q0 -36.5 24.5 -61 q24.5 -24.5 61.5 -25.5 ZM379 209 q0 -26 17 -43 q17 -17 43 -17 q26 0 43 17 q17 17 17 43 q0 26 -17 43 q-17 17 -43 17 q-26 0 -43 -17 q-17 -17 -17 -43 ZM542 269 q26 1 43 18 q17 17 17 42.5 q0 25.5 -17 42.5 q-17 17 -42.5 17 q-25.5 0 -42.5 -17 q-17 -17 -17 -42.5 q0 -25.5 17 -42.5 q17 -17 42 -18 Z" /><glyph glyph-name="Graph" unicode="&#xe6ab;" d="M972 -56 l-84 0 l0 41 l-42 0 l0 -41 l-83 0 l0 41 l-42 0 l0 -41 l-83 0 l0 41 l-42 0 l0 -41 l-84 0 l0 41 l-42 0 l0 -41 l-83 0 l0 41 l-42 0 l0 -41 l-184 0 l220 132 l109 318 l162 -284 l314 523 l-72 43 l-240 -401 l-183 322 l-159 -465 l-218 -131 l0 862 l-84 0 l0 -1003 l1004 0 l0 125 l-42 0 l0 -41 ZM972 863 l42 0 l0 -42 l-42 0 l0 42 ZM846 863 l42 0 l0 -42 l-42 0 l0 42 ZM721 863 l42 0 l0 -42 l-42 0 l0 42 ZM596 863 l42 0 l0 -42 l-42 0 l0 42 ZM470 863 l42 0 l0 -42 l-42 0 l0 42 ZM345 863 l42 0 l0 -42 l-42 0 l0 42 ZM219 863 l42 0 l0 -42 l-42 0 l0 42 ZM94 863 l42 0 l0 -42 l-42 0 l0 42 ZM972 738 l42 0 l0 -42 l-42 0 l0 42 ZM846 738 l42 0 l0 -42 l-42 0 l0 42 ZM721 738 l42 0 l0 -42 l-42 0 l0 42 ZM596 738 l42 0 l0 -42 l-42 0 l0 42 ZM470 738 l42 0 l0 -42 l-42 0 l0 42 ZM345 738 l42 0 l0 -42 l-42 0 l0 42 ZM219 738 l42 0 l0 -42 l-42 0 l0 42 ZM94 738 l42 0 l0 -42 l-42 0 l0 42 ZM972 612 l42 0 l0 -41 l-42 0 l0 41 ZM721 612 l42 0 l0 -41 l-42 0 l0 41 ZM596 612 l42 0 l0 -41 l-42 0 l0 41 ZM345 612 l42 0 l0 -41 l-42 0 l0 41 ZM219 612 l42 0 l0 -41 l-42 0 l0 41 ZM94 612 l42 0 l0 -41 l-42 0 l0 41 ZM972 487 l42 0 l0 -42 l-42 0 l0 42 ZM596 487 l42 0 l0 -42 l-42 0 l0 42 ZM345 487 l42 0 l0 -42 l-42 0 l0 42 ZM219 487 l42 0 l0 -42 l-42 0 l0 42 ZM94 487 l42 0 l0 -42 l-42 0 l0 42 ZM972 362 l42 0 l0 -42 l-42 0 l0 42 ZM846 362 l42 0 l0 -42 l-42 0 l0 42 ZM219 362 l42 0 l0 -42 l-42 0 l0 42 ZM94 362 l42 0 l0 -42 l-42 0 l0 42 ZM972 236 l42 0 l0 -42 l-42 0 l0 42 ZM846 236 l42 0 l0 -42 l-42 0 l0 42 ZM470 236 l42 0 l0 -42 l-42 0 l0 42 ZM219 236 l42 0 l0 -42 l-42 0 l0 42 ZM94 236 l42 0 l0 -42 l-42 0 l0 42 ZM972 111 l42 0 l0 -42 l-42 0 l0 42 ZM846 111 l42 0 l0 -42 l-42 0 l0 42 ZM721 111 l42 0 l0 -42 l-42 0 l0 42 ZM470 111 l42 0 l0 -42 l-42 0 l0 42 ZM94 111 l42 0 l0 -42 l-42 0 l0 42 Z" /><glyph glyph-name="iconloudoutu" unicode="&#xe644;" d="M853 448 l-682 0 l-86 256 l854 0 l-86 -256 ZM768 235 l-512 0 l-85 170 l682 0 l-85 -170 ZM768 192 l-512 0 l85 -128 l342 0 l85 128 Z" /><glyph glyph-name="map" unicode="&#xe852;" d="M637 609 q-1 53 -36.5 88.5 q-35.5 35.5 -88.5 36.5 q-53 -1 -88.5 -36.5 q-35.5 -35.5 -36.5 -88.5 q1 -54 36.5 -89 q35.5 -35 88.5 -37 q53 2 88.5 37 q35.5 35 36.5 89 ZM462 609 q0 21 14.5 35 q14.5 14 35.5 14 q21 0 35.5 -14 q14.5 -14 14.5 -35.5 q0 -21.5 -14.5 -35.5 q-14.5 -14 -35.5 -14 q-21 0 -35.5 14 q-14.5 14 -14.5 36 ZM770 594 q0 0 0 0 l0 -8 l0 8 ZM512 159 q86 58 177 178.5 q91 120.5 99 270.5 l0 1 q-3 117 -81 194.5 q-78 77.5 -195 80.5 q-117 -3 -195 -80.5 q-78 -77.5 -81 -194.5 q8 -151 99 -271.5 q91 -120.5 177 -178.5 ZM512 809 q85 -2 141.5 -58.5 q56.5 -56.5 58.5 -141.5 l0 -10 q-7 -102 -68 -193.5 q-61 -91.5 -132 -151.5 q-73 62 -135 156 q-62 94 -65 199 q2 85 58.5 141.5 q56.5 56.5 141.5 58.5 ZM913 684 l-50 0 l0 -75 l50 0 q10 0 17.5 -7 q7.5 -7 7.5 -18 l0 -285 l-110 144 l-43 -67 l144 -190 q4 -5 9 -8 l0 -194 q0 -11 -7.5 -18 q-7.5 -7 -17.5 -7 l-802 0 q-10 0 -17.5 7 q-7.5 7 -7.5 18 l0 72 l3 3 l154 176 l123 -82 q15 -10 31 -5 l-108 146 l-32 21 q-12 8 -25.5 6.5 q-13.5 -1.5 -23.5 -12.5 l-122 -140 l0 415 q0 11 7.5 18 q7.5 7 17.5 7 l51 0 l0 75 l-51 0 q-42 -1 -70.5 -29 q-28.5 -28 -29.5 -71 l0 -600 q1 -43 29.5 -71 q28.5 -28 70.5 -29 l802 0 q42 1 70.5 29 q28.5 28 29.5 71 l0 600 q-1 43 -29.5 71 q-28.5 28 -70.5 29 Z" /><glyph glyph-name="gauge" unicode="&#xe6c6;" d="M416 208 q35 57 219 290.5 q184 233.5 199 225.5 q12 -6 -98.5 -284.5 q-110.5 -278.5 -141.5 -334.5 q-51 -88 -139 -36.5 q-88 51.5 -39 139.5 q0 0 0 0 ZM512 597 q-172 0 -291 -130 q-119 -130 -119 -319 q0 -30 2 -47 q2 -22 -12 -37.5 q-14 -15.5 -34.5 -17.5 q-20.5 -2 -37 12.5 q-16.5 14.5 -18.5 34.5 q0 8 -1 26.5 q-1 18.5 -1 28.5 q0 232 148.5 391.5 q148.5 159.5 363.5 159.5 q74 0 137 -18 l-71 -88 q-41 4 -66 4 q0 0 0 0 ZM883 534 q141 -158 141 -386 q0 -38 -2 -57.5 q-2 -19.5 -16.5 -33 q-14.5 -13.5 -34.5 -13.5 l-4 0 q-23 4 -36 20.5 q-13 16.5 -11 36.5 q2 15 2 47 q0 154 -82 275 q6 14 20 52 l23 59 q0 0 0 0 Z" /><glyph glyph-name="chartwordcloud" unicode="&#xe6cd;" d="M122 506 l-20 76 l-6 20 l-26 -103 l-25 0 l-39 128 l26 0 l26 -102 l0 8 q1 7 6 17 l19 77 l26 0 l25 -102 l26 102 l19 0 l-38 -128 l-19 0 l0 7 ZM256 499 q-14 0 -24.5 5 q-10.5 5 -20 14.5 q-9.5 9.5 -14.5 21 q-5 11.5 -5 30.5 q0 19 5 32.5 q5 13.5 14 18.5 q10 9 19.5 11 q9.5 2 19.5 2 q14 0 24.5 -5 q10.5 -5 20 -14.5 q9.5 -9.5 14.5 -21 q5 -11.5 5 -30.5 q0 -14 -1 -23.5 q-1 -9.5 -6 -15 q-5 -5.5 -9.5 -12 q-4.5 -6.5 -9.5 -6.5 q-10 -1 -18.5 -3.5 q-8.5 -2.5 -13.5 -3.5 ZM224 531 q5 -5 12.5 -8.5 q7.5 -3.5 13.5 -4.5 q9 1 15 4.5 q6 3.5 10.5 8.5 q4.5 5 8.5 14.5 q4 9.5 4 23.5 q0 14 -4 22 l-9 17 q-5 5 -12.5 9 q-7.5 4 -12.5 4 q-10 0 -15.5 -4 q-5.5 -4 -10.5 -9 q-5 -5 -9 -14.5 q-4 -9.5 -4 -24 q0 -14.5 4 -24 q4 -9.5 9 -14.5 ZM358 570 q0 5 1 12.5 q1 7.5 6 12.5 q0 5 3 7 q3 2 3 6 q5 0 7 3 q2 3 6.5 3.5 q4.5 0.5 9 -0.5 q4.5 -1 9.5 -6 l7 19 q-5 5 -11 6 q-6 1 -15 1 q-5 0 -9 -1 q-4 -1 -4 -5.5 q0 -4.5 -4 -7.5 q-4 -3 -9 -12 l0 19 l-19 0 l0 -128 l19 0 l0 71 ZM422 531 q-4 9 -5 17 q-1 8 -1 22 q0 9 1 18.5 q1 9.5 5.5 19 q4.5 9.5 9.5 15.5 q5 6 10 10.5 q5 4.5 13.5 5.5 q8.5 1 18.5 1 q4 0 9 -1 q5 -1 10 -5.5 q5 -4.5 8.5 -6.5 q3.5 -2 4.5 -6 l0 64 l19 0 l0 -179 l-19 0 l0 19 q-10 -19 -39 -19 q-9 -1 -15 0 q-6 1 -10 6 q-5 1 -10 7.5 q-5 6.5 -10 11.5 ZM435 570 q0 -15 4 -24.5 q4 -9.5 9 -14.5 q5 -5 10.5 -8.5 q5.5 -3.5 15.5 -4.5 q5 1 12.5 4.5 q7.5 3.5 12.5 8.5 q5 5 9 14.5 q4 9.5 4 24 q0 14.5 -4 24 q-4 9.5 -8.5 14.5 q-4.5 5 -10.5 9 q-6 4 -15.5 4 q-9.5 0 -15 -4 q-5.5 -4 -10.5 -9 q-5 -10 -9 -19.5 q-4 -9.5 -4 -18.5 ZM486 269 l-25 6 q0 -9 -4 -15 q-4 -6 -9 -10.5 q-5 -4.5 -10.5 -5.5 q-5.5 -1 -15 -1 q-9.5 0 -16.5 4 l-16 9 q-5 5 -8.5 17.5 q-3.5 12.5 -3.5 27 q0 14.5 3.5 25 q3.5 10.5 8.5 20.5 q5 5 14 8.5 q9 3.5 18 3.5 q5 1 10 0 q5 -1 10 -6 q5 -5 8.5 -10.5 q3.5 -5.5 3.5 -15.5 l26 7 q0 10 -5 18.5 q-5 8.5 -14.5 13.5 q-9.5 5 -19 8.5 q-9.5 3.5 -19 4 q-9.5 0.5 -19 -0.5 q-9.5 -1 -19 -5.5 q-9.5 -4.5 -15.5 -10.5 q-6 -6 -10.5 -15.5 q-4.5 -9.5 -5.5 -20 q-1 -10.5 -1 -24.5 q0 -39 19 -58 q9 -9 21 -14 q12 -5 30 -5 q15 0 24.5 4 q9.5 4 14.5 9 q9 1 15 11 q6 10 10 21 ZM506 218 l25 0 l0 204 l-25 0 l0 -204 ZM627 218 q-14 0 -27.5 4.5 q-13.5 4.5 -23.5 14.5 q-19 19 -19 57 q0 19 5.5 34.5 q5.5 15.5 19.5 29.5 q10 10 20.5 15 q10.5 5 25 5 q14.5 0 28 -5 q13.5 -5 22.5 -15 q20 -19 20 -57 q0 -14 -1 -25 q-1 -11 -5.5 -20 q-4.5 -9 -10.5 -15 q-6 -6 -15 -11 q-10 -9 -19.5 -11 q-9.5 -2 -19.5 -1 ZM595 250 q5 -5 13.5 -9 q8.5 -4 18.5 -4 q10 0 18.5 4 q8.5 4 13.5 9 q5 5 9 17.5 q4 12.5 4 27 q0 14.5 -4 25 q-4 10.5 -9 19.5 q-5 5 -13.5 9 q-8.5 4 -18.5 4 q-10 0 -18.5 -4 q-8.5 -4 -13.5 -9 q-5 -5 -8.5 -17.5 q-3.5 -12.5 -3.5 -27 q0 -14.5 3.5 -25 q3.5 -10.5 8.5 -19.5 ZM819 288 q0 -9 -1 -16 q-1 -7 -5.5 -16 q-4.5 -9 -6.5 -11 q-2 -2 -6 -2 q-5 -4 -9.5 -5 q-4.5 -1 -9.5 -1 q-5 0 -10 1 q-5 1 -9 5 l-13 13 l0 109 l-26 0 l0 -115 q1 -5 3.5 -10 q2.5 -5 3.5 -10 q4 -4 7 -6 q3 -2 12 -6 q4 -5 10 -6 q6 -1 15 -1 q15 0 27.5 6 q12.5 6 17.5 20 l0 -19 l26 0 l0 147 l-26 0 l0 -77 ZM1005 422 l0 -204 l-26 0 l0 19 q-5 -10 -16.5 -14.5 q-11.5 -4.5 -21.5 -4.5 q-10 0 -18.5 3.5 q-8.5 3.5 -13.5 8.5 l-13 11 q-8 6 -12.5 15.5 q-4.5 9.5 -5.5 19 q-1 9.5 -1 19 q0 9.5 1 19 q1 9.5 5.5 19 q4.5 9.5 9.5 15.5 q5 6 9.5 10.5 q4.5 4.5 13.5 8.5 q9 4 18 4 q6 0 13.5 -1 q7.5 -1 12.5 -5.5 q5 -4.5 9.5 -6.5 q4.5 -2 9.5 -6 l0 70 l26 0 ZM986 288 q-1 15 -4.5 27.5 q-3.5 12.5 -8.5 17.5 q-5 5 -13.5 8.5 q-8.5 3.5 -18.5 3.5 q-10 0 -15.5 -3.5 q-5.5 -3.5 -10.5 -8.5 q-5 -5 -8.5 -17.5 q-3.5 -12.5 -3.5 -27 q0 -14.5 3.5 -25 q3.5 -10.5 8.5 -20.5 q5 -5 13 -8.5 q8 -3.5 13 -4.5 q9 1 15 4.5 q6 3.5 11 9 q5 5.5 11.5 19.5 q6.5 14 7.5 25 ZM621 538 l0 -13 l13 0 l0 13 l76 0 l7 6 l0 26 l-13 0 l0 -13 q0 0 -1 0 l-82 0 l0 19 l-13 0 l0 -19 l-38 0 l12 -19 l39 0 ZM627 608 q0 5 -3 10.5 q-3 5.5 -3 15.5 l0 19 q0 5 3 9 l3 4 q5 0 7 3 q2 3 6 3 l77 0 q4 0 6 1 q2 1 7 5 l0 -19 q-5 0 -7 -1 q-2 -1 -6 -5 q4 -5 6 -10 q2 -5 7 -9 q0 -5 3 -10 q3 -5 3 -10 q0 -9 -1 -15 q-1 -6 -5.5 -10.5 q-4.5 -4.5 -9.5 -5.5 q-5 -1 -10 -1 q-5 0 -8.5 1 q-3.5 1 -4 5.5 q-0.5 4.5 -4 5.5 q-3.5 1 -8.5 1 q-1 5 -3.5 7 q-2.5 2 -3.5 6 l0 13 q0 10 -3 18.5 q-3 8.5 -3 13.5 l-6 0 q-5 0 -9 -1 q-4 -1 -4 -6 q-5 -4 -6 -9 q-1 -5 -1 -10 q0 -5 1 -9.5 q1 -4.5 6 -9.5 q0 -5 4 -6 q4 -1 9 0 l0 -20 q-5 1 -10 3.5 q-5 2.5 -10 3 q-5 0.5 -11.5 7.5 q-6.5 7 -7.5 12 ZM678 659 q1 -5 3.5 -13.5 q2.5 -8.5 3.5 -18.5 q0 -5 1 -8.5 q1 -3.5 5.5 -4 q4.5 -0.5 5.5 -3.5 l1 -3 l6 0 q4 0 6 1 q2 1 7 5 q0 5 3 7 q3 2 3 6.5 q0 4.5 -1 9.5 q-1 5 -5 9 q0 5 -4 7 q-4 2 -9 6 l-26 0 ZM621 742 q0 10 4 18.5 q4 8.5 9 13.5 l-13 0 l0 20 l89 0 q14 0 21 -1 q7 -1 11.5 -5.5 q4.5 -4.5 9.5 -6.5 q5 -2 9.5 -7 q4.5 -5 5.5 -12.5 q1 -7.5 1 -12.5 q0 -10 -1 -18.5 q-1 -8.5 -5.5 -13.5 q-4.5 -5 -10.5 -9 q-6 -4 -15 -4 l0 19 q4 0 6 1 q2 1 6.5 5.5 q4.5 4.5 5.5 9.5 q1 5 1 10 q0 5 -1 9.5 q-1 4.5 -5.5 9.5 q-4.5 5 -6.5 6 q-2 1 -6 0 l-26 0 q5 -5 9 -13.5 q4 -8.5 4 -18 q0 -9.5 -4 -18.5 q-4 -9 -9 -14 q-9 -5 -18.5 -8.5 q-9.5 -3.5 -19 -4 q-9.5 -0.5 -15.5 0.5 q-6 1 -10.5 5.5 q-4.5 4.5 -9.5 6.5 q-5 2 -9.5 6.5 q-4.5 4.5 -5.5 10.5 q-1 6 -1 15 ZM634 742 q-1 -4 1 -9 q2 -5 11 -10 q5 -4 11 -5 q6 -1 15.5 -1 q9.5 0 18 1 q8.5 1 13.5 5.5 q5 4.5 6 9.5 q1 5 1 9.5 q0 4.5 -1 9.5 q-1 5 -6 9.5 q-5 4.5 -13.5 5.5 q-8.5 1 -18.5 1 q-10 0 -18.5 -1 q-8.5 -1 -13.5 -5 q0 -5 -3 -10 q-3 -5 -3 -10 ZM198 6 q0 -4 1 -6 q1 -2 6 -6 l-19 0 q-1 4 -3.5 6 q-2.5 2 -3.5 6 q-5 -5 -9.5 -8.5 q-4.5 -3.5 -9.5 -4 q-5 -0.5 -9.5 -3 q-4.5 -2.5 -9.5 -3.5 q-10 0 -15.5 1 q-5.5 1 -10.5 5.5 q-5 4.5 -8.5 10.5 q-3.5 6 -4.5 15 q0 5 1 9 q1 4 6 4 q0 4 4 6 q4 2 9 7 q4 0 6 3 q2 3 6 3 l20 0 q9 1 18 3.5 q9 2.5 14 3.5 l0 6 q0 5 -1 9.5 q-1 4.5 -6 9.5 q-5 5 -9.5 6 q-4.5 1 -9.5 1 q-5 0 -9.5 -1 q-4.5 -1 -9.5 -6 q-5 0 -6 -4.5 q-1 -4.5 -1 -14.5 l-19 0 q1 5 3.5 9.5 q2.5 4.5 3 9.5 q0.5 5 4.5 7 l15 6 q4 0 10 3 q6 3 15 3 q6 1 13.5 0 q7.5 -1 12.5 -6 q5 0 9 -3 l4 -3 l3 -4 q3 -4 3 -9 l0 -45 q-9 -9 -11 -15 q-2 -6 -2 -11 ZM179 51 q-5 0 -13.5 -3 q-8.5 -3 -18.5 -3 q-5 0 -9.5 -1 q-4.5 -1 -9.5 -6 q-5 0 -6 -3 l0 -3 l0 -6 q-1 -5 0 -7 q1 -2 5.5 -6.5 q4.5 -4.5 7.5 -5.5 q3 -1 12 -1 q5 0 10 1 q5 1 9.5 5.5 q4.5 4.5 8.5 6.5 q4 2 4 7 l0 25 ZM301 102 l19 0 l0 -96 q0 -14 -1 -23.5 q-1 -9.5 -5.5 -14.5 q-4.5 -5 -7.5 -9.5 q-3 -4.5 -12 -9.5 q-5 -5 -12.5 -6 q-7.5 -1 -12.5 -1 q-10 0 -18.5 1 q-8.5 1 -13.5 5.5 q-5 4.5 -9 10.5 q-4 6 -4 15 l19 0 q0 -5 1 -8.5 q1 -3.5 6 -3.5 q4 -5 9 -6 q5 -1 10 -1 q5 0 9.5 1 q4.5 1 9.5 6 l13 12 l0 26 q-5 -9 -13.5 -11 q-8.5 -2 -18.5 -2 q-19 0 -39 19 q-5 10 -8.5 19.5 q-3.5 9.5 -4 19 q-0.5 9.5 0.5 16.5 q1 7 5.5 16 q4.5 9 7.5 12 q3 3 12 7 q5 5 10.5 6 q5.5 1 15.5 0.5 q10 -0.5 18.5 -4 q8.5 -3.5 13.5 -8.5 l0 12 ZM301 51 q0 10 -1 18.5 q-1 8.5 -5.5 13.5 q-4.5 5 -9.5 9 q-5 4 -10 4 q-5 0 -9.5 -4 q-4.5 -4 -9.5 -9 q-5 -5 -6 -13.5 q-1 -8.5 -1 -18.5 q0 -10 1 -18.5 q1 -8.5 6 -13.5 q5 -5 9.5 -8.5 q4.5 -3.5 9.5 -3.5 q5 0 10 3.5 q5 3.5 9 8.5 q1 5 3.5 11.5 q2.5 6.5 3.5 20.5 ZM346 122 l19 0 l0 19 l-19 0 l0 -19 ZM346 -6 l19 0 l0 108 l-19 0 l0 -108 ZM390 -6 l20 0 l0 153 l-20 0 l0 -153 ZM525 90 q5 -10 8.5 -20.5 q3.5 -10.5 4.5 -24.5 q0 0 0 -1 l0 -6 l-84 0 q1 -9 4.5 -15 q3.5 -6 8.5 -10.5 q5 -4.5 10.5 -8.5 q5.5 -4 15.5 -4 q5 0 9.5 1 q4.5 1 9 5.5 q4.5 4.5 6.5 7.5 q2 3 7 12 l19 0 q0 -10 -5 -15.5 q-5 -5.5 -14 -10.5 q-9 -5 -16 -6 q-7 -1 -16 0 q-15 0 -24.5 3.5 q-9.5 3.5 -14.5 8.5 q-5 10 -8.5 20.5 q-3.5 10.5 -3.5 24.5 q0 14 3.5 25 q3.5 11 8.5 20 q9 9 17 11 q8 2 22 2 q5 0 13.5 -5 q8.5 -5 18.5 -14 ZM518 58 q0 5 -3 12 l-3 7 q-5 5 -10.5 8.5 q-5.5 3.5 -15.5 4.5 q-4 0 -9 -1 q-5 -1 -9.5 -5.5 q-4.5 -4.5 -6.5 -10.5 q-2 -6 -7 -15 l64 0 ZM730 58 q4 -5 5 -11 q1 -6 1 -15 q0 -5 -1 -9.5 q-1 -4.5 -5 -9.5 q-1 -5 -4.5 -9 q-3.5 -4 -8.5 -4 q-5 -5 -10 -6 q-5 -1 -9 0 l-84 0 l0 153 l58 0 q9 0 15 -1 q6 -1 11 -5 q4 0 9 -4 q5 -4 9.5 -9 q4.5 -5 5.5 -9.5 q1 -4.5 1 -9.5 q0 -5 -1 -10 q-1 -5 -5 -9 l-7 -9 q-3 -4 -12 -4 q14 -5 20.5 -10 q6.5 -5 11.5 -9 ZM640 83 l32 0 l19 0 q5 1 7 3.5 q2 2.5 6 3.5 q0 4 3 6 q3 2 3.5 6.5 q0.5 4.5 -0.5 8.5 q-1 4 -5.5 4.5 q-4.5 0.5 -6.5 3 q-2 2.5 -7 3.5 l-57 0 l0 -39 l6 0 ZM717 38 q0 5 -1 9 q-1 4 -6 4 q0 5 -3.5 6 q-3.5 1 -8.5 1 l-64 0 l0 -52 l51 0 q4 0 6 1 q2 1 7 6 l6 6 q9 5 11 10 q2 5 2 9 ZM762 122 l19 0 l0 19 l-19 0 l0 -19 ZM762 -6 l19 0 l0 108 l-19 0 l0 -108 ZM250 218 q0 -1 0 -4 l0 -22 l6 -6 l0 -7 q-5 0 -6 1 q-1 1 -1 5.5 q0 4.5 -3 5.5 l-3 1 l0 26 l1 3 q1 3 6 3 l51 0 l0 -13 l-7 0 q1 -4 3.5 -6 q2.5 -2 3.5 -7 l0 -12 q0 -5 -1 -9 q-1 -4 -6 -4 q0 -5 -3.5 -6 q-3.5 -1 -8.5 -1 l-7 0 l-3 1 q-3 1 -3 6 l0 5 q0 1 0 1 l0 7 q0 4 -1 9 q-1 5 -6 10 q0 0 0 0 l-11 11 q-2 2 -1 2 ZM262 218 q0 -5 1 -7 q1 -2 6 -6 l0 -6 q0 -1 0 -0.5 q0 0.5 0 -0.5 l0 -6 q0 -4 1 -2.5 q1 1.5 5 2.5 l7 0 l0 19 l-7 7 q1 0 -1 0 l-12 0 ZM294 250 l-76 0 l0 -7 l76 0 l0 7 ZM218 269 l12 0 l0 6 l-12 0 l0 -6 ZM237 269 l57 0 l0 6 l-57 0 l0 -6 ZM294 320 q0 5 -3 6 l-3 0 l-12 0 q-1 0 -1 0 l-6 -6 l-1 -4 q-1 -4 -6 -9 l0 -5 q0 -1 0 -1 q0 0 0 -1 l0 -6 q1 0 0 0 l-12 0 l0 12 q0 1 0 1 l6 7 l0 6 q-5 0 -6 -1 q-1 -1 0 -5 l-7 -7 l0 -25 l1 -4 q1 -2 6 -3 l12 0 l7 7 l1 4 q1 3 5 8 q0 5 1 7 q1 2 6 6 q-1 0 0 0 l12 0 l0 -25 l-6 -7 l0 -6 q5 0 9 3 l4 3 q0 4 3 7 q3 3 3 12 q-9 15 -11 20.5 q-2 5.5 -2 5.5 ZM294 352 l-57 0 l0 -6 l57 0 l0 6 ZM224 352 l-13 0 l0 -6 l13 0 l0 6 ZM294 397 q0 4 -3 5 l-3 1 l-12 0 q-1 0 -1 0 l-6 -6 l-1 -4 q-1 -4 -6 -9 l0 -6 q0 -1 0 -0.5 q0 0.5 0 -0.5 l0 -6 q1 0 0 0 l-12 0 l0 12 q0 1 0 1 l6 6 l0 7 q-5 0 -6 -1 q-1 -1 0 -6 l-7 -6 l0 -26 l1 -3 q1 -3 6 -3 l12 0 l7 6 l1 4 q1 4 5 9 q0 5 1 7 q1 2 6 6 q-1 0 0 0 l12 0 l0 -26 l-6 -6 l0 -6 q5 0 9 3 l4 3 q0 0 3 5 q3 5 3 14 q-9 14 -11 20 q-2 6 -2 6 Z" /><glyph glyph-name="radarchart" unicode="&#xe7cb;" d="M512 832 q-190 -5 -316.5 -131.5 q-126.5 -126.5 -131.5 -316.5 q5 -190 131.5 -316.5 q126.5 -126.5 316.5 -131.5 q190 5 316.5 131.5 q126.5 126.5 131.5 316.5 q-5 190 -131.5 316.5 q-126.5 126.5 -316.5 131.5 ZM275 479 l90 -33 q-13 -29 -13 -62 q1 -55 32.5 -96 q31.5 -41 81.5 -56 l-26 -92 q-81 25 -131.5 90 q-50.5 65 -52.5 154 q0 51 19 95 ZM513 388 q10 -9 37 -33 l59 -53 q-29 -35 -74 -44 l-22 130 ZM512 391 l0 1 l0 -1 l-4 0 l3 -2 l-36 -127 q-40 13 -65 45.5 q-25 32.5 -26 76.5 q0 28 11 51 l117 -43 l-62 103 q28 16 62 17 q54 -1 90 -37 q36 -36 38 -90 l-128 6 ZM540 227 q57 11 93 53 q22 -20 40 -37.5 q18 -17.5 28 -29.5 q-28 -31 -65 -52 q-37 -21 -80 -29 l-16 95 ZM767 379 l-95 5 l0 0 q-2 68 -47 113 q-45 45 -113 47 q-44 -1 -79 -22 l-50 82 q58 35 129 36 q109 -3 181 -75 q72 -72 75 -181 l-1 -5 ZM127 384 q1 74 27 140 l73 -27 q-22 -53 -22 -113 q2 -106 63 -184.5 q61 -78.5 158 -108.5 l-21 -76 q-123 37 -199 136 q-76 99 -79 233 ZM578 5 l-13 77 q110 22 181 104 q71 82 73 198 q-3 130 -90 217 q-87 87 -217 90 q-43 0 -82 -11.5 q-39 -11.5 -73 -32.5 l-42 67 q43 26 93 40.5 q50 14.5 104 14.5 q163 -4 272 -112.5 q109 -108.5 113 -272.5 q-3 -145 -91.5 -248.5 q-88.5 -103.5 -227.5 -130.5 Z" /><glyph glyph-name="chartpie" unicode="&#xe670;" d="M567 439 l0 389 l-111 0 l0 -3 q-169 -25 -277.5 -146 q-108.5 -121 -111.5 -295 q4 -189 129.5 -314.5 q125.5 -125.5 314.5 -130.5 q174 4 295.5 112.5 q121.5 108.5 145.5 276.5 l4 0 l0 111 l-389 0 ZM511 50 q-142 4 -236 98 q-94 94 -97 236 q2 126 79.5 216 q77.5 90 198.5 112 l0 -384 l384 0 q-23 -120 -112.5 -197.5 q-89.5 -77.5 -216.5 -80.5 ZM678 773 l0 -222 l222 0 q-2 94 -65 157 q-63 63 -157 65 Z" /><glyph glyph-name="kongjiansangjitu" unicode="&#xe863;" d="M0 823 l73 0 l0 -220 l-73 0 l0 220 ZM585 603 l0 74 l0 146 l-73 0 l0 -220 l73 0 ZM1024 823 l73 0 l0 -146 l-73 0 l0 146 ZM110 823 l365 0 l0 -220 l-365 0 l0 220 ZM110 530 l365 0 l0 -219 l-365 0 l0 219 ZM622 530 l365 0 l0 -219 l-365 0 l0 219 ZM622 157 l365 -58 l0 146 l-365 59 l0 -147 ZM475 296 l-182 -95 l-183 95 l0 -146 l36 -22 l-36 -15 l0 -146 l183 88 l182 -88 l0 146 l-36 15 l36 22 l0 146 ZM622 823 l365 0 l0 -146 l-365 0 l0 146 ZM622 596 l365 -58 l0 73 l-365 58 l0 -73 ZM73 530 l-73 0 l0 -365 l73 0 l0 146 l0 219 ZM585 530 l-73 0 l0 -365 l73 0 l0 146 l0 219 ZM1024 311 l73 0 l0 292 l-73 0 l0 -73 l0 -219 ZM0 91 l73 0 l0 -146 l-73 0 l0 146 ZM512 91 l73 0 l0 -146 l-73 0 l0 146 ZM622 91 l365 0 l0 -146 l-365 0 l0 146 ZM1024 -55 l73 0 l0 293 l-73 0 l0 -147 l0 -146 Z" /><glyph glyph-name="relitu" unicode="&#xe619;" d="M782 -118 q-105 46 -242 39.5 q-137 -6.5 -241 1.5 q-100 16 -165 92.5 q-65 76.5 -99 174.5 q-76 238 15.5 325.5 q91.5 87.5 219.5 78.5 q103 1 133 89 q30 88 180 185 q163 70 219.5 -58 q56.5 -128 35.5 -202 q-24 -49 -9 -117 q15 -68 134 -197 q111 -148 22 -298 q-89 -150 -203 -114 ZM891 290 q-105 108 -125 168.5 q-20 60.5 2 107.5 q21 61 -10.5 167.5 q-31.5 106.5 -168.5 49.5 q-127 -82 -152.5 -168 q-25.5 -86 -112.5 -90 q-110 7 -196.5 -65.5 q-86.5 -72.5 -25.5 -264.5 q29 -78 90 -132 q61 -54 146 -65 q89 -5 204.5 -1.5 q115.5 3.5 203.5 -33.5 q96 -28 167 90 q71 118 -22 237 ZM650 103 q-51 22 -65.5 75.5 q-14.5 53.5 1.5 110.5 q12 56 -17 119.5 q-29 63.5 -54 107.5 q-19 48 17.5 115 q36.5 67 93.5 87 q81 15 74 -80.5 q-7 -95.5 -11 -196.5 q15 -91 92.5 -157.5 q77.5 -66.5 86.5 -121.5 q-8 -56 -83.5 -67.5 q-75.5 -11.5 -134.5 8.5 ZM472 203 q-46 -42 -101.5 -59 q-55.5 -17 -114.5 1 q-61 26 -86.5 94.5 q-25.5 68.5 17.5 114.5 q86 71 126.5 45 q40.5 -26 110.5 -1 q75 25 84.5 -58.5 q9.5 -83.5 -36.5 -136.5 Z" /><glyph glyph-name="510tongji_guanxitu" unicode="&#xe649;" d="M960 384 q-24 -1 -41.5 -17 q-17.5 -16 -22.5 -41 l-70 -6 q-11 29 -35.5 46.5 q-24.5 17.5 -54.5 17.5 q-19 0 -37.5 -8.5 q-18.5 -8.5 -32.5 -23.5 l-154 70 q-2 65 -46.5 108.5 q-44.5 43.5 -113.5 45.5 q-10 0 -19.5 -1 q-9.5 -1 -18.5 -5 l-39 83 q20 15 32.5 37 q12.5 22 12.5 46 q0 9 -1 16 q-1 7 -5 16 l140 45 q6 -20 22 -32.5 q16 -12.5 36 -12.5 q29 0 46.5 17.5 q17.5 17.5 17.5 46.5 q0 29 -17.5 46.5 q-17.5 17.5 -46.5 17.5 q-20 0 -36 -12.5 q-16 -12.5 -22 -32.5 l-166 -45 q-10 10 -27 18 q-17 8 -37 8 q-40 -1 -67.5 -28.5 q-27.5 -27.5 -28.5 -67.5 q1 -40 28.5 -67.5 q27.5 -27.5 67.5 -28.5 l6 0 l39 -90 q-34 -19 -55 -54.5 q-21 -35.5 -22 -79.5 q1 -54 33.5 -96 q32.5 -42 81.5 -58 l-19 -70 q-24 0 -42.5 -9.5 q-18.5 -9.5 -27.5 -28.5 l-90 38 q-1 25 -20 44 q-19 19 -44 20 q-29 0 -46.5 -17.5 q-17.5 -17.5 -17.5 -46.5 q0 -29 17.5 -46.5 q17.5 -17.5 46.5 -17.5 q15 0 27.5 5.5 q12.5 5.5 17.5 20.5 l83 -39 l0 -19 q0 -14 4 -24.5 q4 -10.5 9 -20.5 l-45 -57 q-9 4 -16 5 q-7 1 -16 1 q-29 0 -46.5 -17.5 q-17.5 -17.5 -17.5 -46.5 q0 -29 17.5 -46.5 q17.5 -17.5 46.5 -17.5 q29 0 46.5 17.5 q17.5 17.5 17.5 46.5 q0 5 -1 10.5 q-1 5.5 -5 15.5 l44 57 q29 -19 58 -19 q15 0 28 4 q13 4 23 9 l51 -51 q-4 -5 -5 -11 q-1 -6 -1 -15 q0 -29 17.5 -46.5 q17.5 -17.5 46.5 -17.5 q29 0 46.5 17.5 q17.5 17.5 17.5 46.5 q0 29 -17.5 46.5 q-17.5 17.5 -46.5 17.5 q-5 0 -12.5 -1 q-7.5 -1 -13.5 -5 l-51 57 q5 10 9 20.5 q4 10.5 4 24.5 q0 29 -13.5 51 q-13.5 22 -37.5 32 l19 77 q54 1 96 33.5 q42 32.5 58 81.5 l140 -57 q-4 -6 -5 -13.5 q-1 -7.5 -1 -12.5 q1 -40 28.5 -67.5 q27.5 -27.5 67.5 -28.5 l19 0 l32 -83 q-9 -10 -14 -20.5 q-5 -10.5 -5 -24.5 q0 -29 17.5 -46.5 q17.5 -17.5 46.5 -17.5 q29 0 46.5 17.5 q17.5 17.5 17.5 46.5 q0 29 -17.5 46.5 q-17.5 17.5 -46.5 17.5 l-32 83 q15 10 23.5 24.5 q8.5 14.5 8.5 33.5 l77 13 q10 -10 23 -18 q13 -8 28 -8 q29 0 46.5 17.5 q17.5 17.5 17.5 46.5 q0 29 -17.5 46.5 q-17.5 17.5 -46.5 17.5 Z" /><glyph glyph-name="508tongji_xiangxiantu" unicode="&#xe64d;" d="M448 704 l0 64 l-448 0 l0 -64 l192 0 l0 -128 l-192 0 l0 -384 l192 0 l0 -192 l-192 0 l0 -64 l448 0 l0 64 l-192 0 l0 192 l192 0 l0 384 l-192 0 l0 128 l192 0 ZM384 256 l-320 0 l0 128 l320 0 l0 -128 ZM384 512 l0 -64 l-320 0 l0 64 l320 0 ZM960 768 l0 64 l-448 0 l0 -64 l192 0 l0 -128 l-192 0 l0 -384 l192 0 l0 -192 l-192 0 l0 -64 l448 0 l0 64 l-192 0 l0 192 l192 0 l0 384 l-192 0 l0 128 l192 0 ZM896 320 l-320 0 l0 128 l320 0 l0 -128 ZM896 576 l0 -64 l-320 0 l0 64 l320 0 Z" /><glyph glyph-name="507tongji_Kxiantu" unicode="&#xe64e;" d="M960 640 l-64 0 l0 256 l-64 0 l0 -256 l-64 0 l0 -384 l64 0 l0 -256 l64 0 l0 256 l64 0 l0 384 ZM128 704 l-64 0 l0 -128 l-64 0 l0 -320 l64 0 l0 -192 l64 0 l0 192 l64 0 l0 320 l-64 0 l0 128 ZM640 576 l-64 0 l0 -192 l-64 0 l0 -256 l64 0 l0 -192 l64 0 l0 192 l64 0 l0 256 l-64 0 l0 192 ZM384 896 l-64 0 l0 -192 l-64 0 l0 -512 l64 0 l0 -320 l64 0 l0 320 l64 0 l0 512 l-64 0 l0 192 Z" /><glyph glyph-name="chart-treemap" unicode="&#xe613;" d="M32 804 l420 0 l0 -842 l-420 0 l0 842 ZM512 804 l480 0 l0 -481 l-480 0 l0 481 ZM512 263 l480 0 l0 -301 l-480 0 l0 301 Z" /><glyph glyph-name="chart-bar" unicode="&#xe60c;" d="M130 319 l0 -191 q4 -27 31.5 -45 q27.5 -18 31.5 -19 l702 0 q4 2 32 2 q28 0 33 -20 q-2 -22 -15.5 -33.5 q-13.5 -11.5 -15.5 -11.5 l-772 1 q-66 7 -80 51.5 q-14 44.5 -11 50.5 l0 624 q3 23 22.5 30 q19.5 7 22.5 7 q20 -4 20 -31.5 q0 -27.5 -1 -31.5 l0 -383 ZM312 590 q-23 0 -31 0 l-28 0 q-20 2 -39.5 -7 q-19.5 -9 -20.5 -51 l0 -348 q1 -42 21.5 -51 q20.5 -9 39.5 -7 l28 0 q25 -2 46.5 7 q21.5 9 22.5 51 l0 348 q-2 41 -19.5 50.5 q-17.5 9.5 -19.5 7.5 ZM549 706 q1 42 -4 51 q-5 9 -29 7 l-63 0 q-20 1 -40.5 -10 q-20.5 -11 -21.5 -48 l0 -522 q0 -36 17 -47.5 q17 -11.5 47 -10.5 l67 0 q39 -2 35 8.5 q-4 10.5 -8 49.5 l0 522 ZM677 520 l-24 0 q-20 0 -41 -10.5 q-21 -10.5 -23 -35.5 l0 -290 q0 -36 18.5 -47.5 q18.5 -11.5 47.5 -10.5 l28 0 q41 0 53.5 14.5 q12.5 14.5 10.5 43.5 l0 290 q-1 25 -22.5 35.5 q-21.5 10.5 -47.5 10.5 ZM877 381 l-23 0 q-20 0 -42.5 -13.5 q-22.5 -13.5 -24.5 -38.5 l0 -145 q1 -36 20 -47.5 q19 -11.5 48 -10.5 l28 0 q41 0 52.5 14.5 q11.5 14.5 9.5 43.5 l0 145 q-1 26 -21.5 39 q-20.5 13 -46.5 13 Z" /><glyph glyph-name="chart-line" unicode="&#xe611;" d="M784 590 q0 1 -4 15.5 q-4 14.5 -5 27.5 q1 42 27 69.5 q26 27.5 65 27.5 q39 0 65 -27.5 q26 -27.5 26 -69.5 q0 -42 -26 -70 q-26 -28 -65 -29 q-5 0 -11 1 l-164 -203 q19 -26 20 -63 q-1 -42 -27.5 -70 q-26.5 -28 -65.5 -28.5 q-39 -0.5 -64.5 25.5 q-25.5 26 -26.5 68 l-118 101 q-25 -29 -65 -29 q-26 0 -46.5 13 q-20.5 13 -33.5 36 l-135 -62 l0 -192 q4 -27 31.5 -45 q27.5 -18 31.5 -18 l702 0 q4 1 32 1 q28 0 33 -20 q-2 -22 -15.5 -33 q-13.5 -11 -15.5 -11 l-772 1 q-66 6 -80 51 q-14 45 -11 51 l0 624 q3 23 22.5 30 q19.5 7 22.5 6 q20 -4 20 -31.5 q0 -27.5 -1 -31.5 l0 -319 l128 75 q8 30 27 51 q19 21 60 21 q39 0 65 -27 q26 -27 27 -69 l117 -95 q16 20 41 23.5 q25 3.5 28 2.5 l161 222 Z" /><glyph glyph-name="user1" unicode="&#xe639;" d="M631 343 q55 33 88 89 q33 56 33 126 q-2 105 -71.5 175.5 q-69.5 70.5 -174.5 72.5 q-104 -2 -173.5 -72.5 q-69.5 -70.5 -71.5 -175.5 q0 -71 34 -127.5 q34 -56.5 91 -89.5 q-113 -38 -187 -129 q-74 -91 -87 -215 q0 -14 8 -24 q8 -10 22 -11 q14 -1 24 7 q10 8 11 22 q15 133 108 217.5 q93 84.5 227 87.5 q134 -3 227 -87.5 q93 -84.5 107 -217.5 q2 -13 11 -21 q9 -8 22 -8 l3 0 q14 1 22 11 q8 10 7 24 q-13 126 -88.5 218 q-75.5 92 -191.5 128 l0 0 ZM326 558 q2 78 53 130 q51 52 127 54 q77 -2 128 -54 q51 -52 53 -130 q-2 -78 -53 -130 q-51 -52 -128 -54 q-76 2 -127 54 q-51 52 -53 130 l0 0 Z" /><glyph glyph-name="group" unicode="&#xe625;" d="M959 41 q-1 2 -1 4 q-3 107 -55.5 190.5 q-52.5 83.5 -138.5 126.5 l-1 7 q39 33 61.5 80.5 q22.5 47.5 23.5 104.5 q-2 97 -60.5 163 q-58.5 66 -147.5 74 l-2 -1 q-14 -1 -23.5 -11.5 q-9.5 -10.5 -9.5 -25.5 l0 -3 q1 -16 11 -25.5 q10 -9.5 25 -12.5 q9 -2 11.5 -1.5 q2.5 0.5 6.5 -2.5 q50 -14 85 -60.5 q35 -46.5 36 -103.5 q-1 -44 -24 -74.5 q-23 -30.5 -57 -50.5 l-4 -5 q-22 -9 -30 -32 l-2 -4 q1 -1 0 -3 q-1 -2 0 -2 q-1 -5 -2 -10 l1 -5 q0 -23 14.5 -39 q14.5 -16 36.5 -16 q7 -8 10 -8 q3 0 13 -6 q66 -35 106 -99.5 q40 -64.5 43 -146.5 l0 -5 q0 -17 10.5 -28 q10.5 -11 26.5 -11 q16 0 26.5 11 q10.5 11 10.5 28 l0 3 ZM735 45 q-3 109 -56.5 193 q-53.5 84 -141.5 127 q40 33 63.5 82 q23.5 49 24.5 107 q-3 102 -66 169.5 q-63 67.5 -158 69.5 q-96 -3 -166.5 -75 q-70.5 -72 -74.5 -174 q2 -58 32.5 -102 q30.5 -44 71.5 -77 q-87 -42 -140.5 -125 q-53.5 -83 -57.5 -190 q-1 -4 -2 -9 l1 -3 q0 -17 10.5 -28 q10.5 -11 26.5 -11 q16 0 26.5 11 q10.5 11 10.5 28 l0 0 l1 0 q2 116 72.5 193.5 q70.5 77.5 177.5 84.5 l11 -1 l11 1 q105 -7 175.5 -83.5 q70.5 -76.5 73.5 -190.5 l1 -4 q0 -17 10.5 -28 q10.5 -11 26.5 -11 q16 0 26.5 11 q10.5 11 10.5 28 l-1 7 ZM400 395 q-63 2 -105 47 q-42 45 -44 113 q2 67 44 112 q42 45 105 47 q64 -2 106 -47 q42 -45 43 -112 q-1 -68 -43 -113 q-42 -45 -106 -47 Z" /><glyph glyph-name="custom-business" unicode="&#xe638;" d="M312 155 q-1 -6 3 -8.5 q4 -2.5 9 -0.5 l117 51 l-115 85 l-14 -127 l0 0 ZM337 314 l132 -97 l214 289 l-133 98 l-213 -290 ZM486 264 l-15 11 l11 14 l14 -10 l-10 -15 ZM649 487 l-147 -200 l-14 10 l147 200 l14 -10 ZM695 566 l-91 68 q-9 6 -19 4.5 q-10 -1.5 -17 -9.5 l-7 -10 l132 -98 l8 10 q6 9 4.5 19 q-1.5 10 -10.5 16 l0 0 l0 0 ZM469 145 l300 0 l0 22 l-300 0 l0 -22 ZM549 270 l0 -22 l220 0 l0 22 l-220 0 ZM845 729 l-665 0 q-68 -1 -114 -47 q-46 -46 -48 -115 l0 -379 q2 -68 48 -114 q46 -46 114 -48 l665 0 q69 2 114.5 48 q45.5 46 47.5 114 l0 379 q-2 69 -47.5 115 q-45.5 46 -114.5 47 l0 0 ZM966 563 l0 -371 q-2 -49 -35 -82.5 q-33 -33.5 -82 -34.5 l-672 0 q-50 1 -83 34.5 q-33 33.5 -34 82.5 l0 371 q1 50 34 83 q33 33 83 34 l672 0 q49 -1 82 -34 q33 -33 35 -83 l0 0 ZM966 563 l0 0 Z" /><glyph glyph-name="dashboard" unicode="&#xe631;" d="M952 64 q-166 0 -333 0 l-17 0 q3 -34 4 -66 q2 -41 39 -60 q15 -8 29 -17 q4 -3 7.5 -8 q3.5 -5 1.5 -9 q-2 -4 -9 -4 l-320 0 q-4 -1 -8 -0.5 q-4 0.5 -5.5 6 q-1.5 5.5 1.5 9 q3 3.5 7 5.5 l37 22 q28 17 31 51 l5 71 l-353 0 q-36 -1 -36 36 l0 568 q1 34 34 34 l885 0 q28 2 39 -22 l0 -594 q-11 -24 -39 -22 ZM945 637 l-866 0 l0 -503 l866 0 l0 503 ZM138 281 q0 17 0 34 q0 12 12 13 l38 0 q13 0 13 -13 l0 -69 q0 -12 -13 -12 l-37 0 q-13 -1 -13 13 l0 34 l0 0 ZM319 297 q0 24 0 49 q0 14 14 13 l36 0 q14 0 13 -13 l0 -100 q0 -12 -12 -12 l-38 0 q-13 -1 -13 13 l0 50 ZM291 312 q1 -32 0 -64 q1 -8 -2.5 -11 q-3.5 -3 -10.5 -3 l-36 0 q-14 -1 -13 12 l0 132 q-1 13 13 13 l37 0 q13 0 12 -14 l0 -65 ZM851 483 q-58 -43 -118 -88 l0 152 q29 1 64.5 -18 q35.5 -19 53.5 -46 ZM410 327 q0 40 0 79 q0 10 3.5 13 q3.5 3 12.5 3 l33 0 q15 1 14 -13 l0 -163 q0 -13 -13 -12 l-37 0 q-13 -1 -13 13 l0 80 ZM350 426 q43 49 89 101 l-36 0 q-12 -2 -13 9 q-1 11 14 12 l55 0 q8 0 11 -3 q3 -3 3 -11 l0 -57 q1 -12 -10 -12 q-11 0 -11 12 l0 33 l-89 -102 q-6 -7 -10.5 -7 q-4.5 0 -11.5 6 l-80 64 l-8 -7 l-91 -86 q-3 -3 -7 -6 q-8 -6 -14 2 q-2 6 0 13 q2 3 6 6 l102 96 q6 6 10 6.5 q4 0.5 11 -5.5 l80 -64 ZM819 253 q-39 61 -79 122 l122 91 q31 -49 21 -110.5 q-10 -61.5 -64 -102.5 ZM712 535 q0 -45 0 -89 q0 -28 0 -56 q0 -8 4 -14 l79 -122 q-33 -21 -77 -20.5 q-44 0.5 -84.5 29.5 q-40.5 29 -55.5 74.5 q-15 45.5 -0.5 92 q14.5 46.5 51.5 75.5 q37 29 83 30 Z" /><glyph glyph-name="widget-gallery" unicode="&#xe671;" d="M768 247 l0 -119 l-512 0 l0 183 l51 51 q19 19 45 19 q26 0 45 -19 l156 -156 l23 22 l23 -22 l60 60 q19 19 45 19 q26 0 45 -19 l19 -19 ZM256 640 l512 0 l0 -348 l-19 19 q-19 19 -45 19 q-26 0 -45 -19 l-83 -83 l-179 179 q-19 19 -45 19 q-26 0 -45 -19 l-51 -51 l0 284 ZM832 576 l64 0 l0 -384 l-64 0 l0 384 ZM192 640 l-128 0 l0 -512 l128 0 l0 -64 l640 0 l0 64 l128 0 l0 512 l-128 0 l0 64 l-640 0 l0 -64 ZM128 576 l64 0 l0 -384 l-64 0 l0 384 ZM629 480 q1 18 13 30 q12 12 30 12 q18 0 30 -12 q12 -12 12 -30 q0 -18 -12 -30 q-12 -12 -30 -12 q-18 0 -30 12 q-12 12 -13 30 ZM608 480 q1 -27 19 -45 q18 -18 45 -18 q27 0 45 18 q18 18 18 45 q0 27 -18 45 q-18 18 -45 18 q-27 0 -45 -18 q-18 -18 -19 -45 Z" /><glyph glyph-name="datasource24" unicode="&#xe6ef;" d="M512 853 q-155 1 -279.5 -45.5 q-124.5 -46.5 -131.5 -144.5 l0 -558 q7 -98 131.5 -144.5 q124.5 -46.5 279.5 -46.5 q155 0 279.5 46.5 q124.5 46.5 131.5 144.5 l0 558 q-7 98 -131.5 144.5 q-124.5 46.5 -279.5 45.5 ZM864 105 q-4 -56 -103 -93 q-99 -37 -249 -39 q-150 2 -249 39 q-99 37 -103 93 l0 110 q48 -47 144 -71 q96 -24 208 -24 q112 0 208 24 q96 24 144 71 l0 -110 ZM864 281 l0 0 l0 -1 q-4 -55 -103 -92 q-99 -37 -249 -39 q-150 2 -249 39 q-99 37 -103 92 l0 111 q48 -47 144 -71 q96 -24 208 -24 q112 0 208 24 q96 24 144 71 l0 -110 ZM864 457 l0 0 l0 -1 q-4 -55 -103 -92 q-99 -37 -249 -39 q-150 2 -249 39 q-99 37 -103 92 l0 102 q60 -44 154.5 -65 q94.5 -21 197.5 -21 q103 0 197.5 21 q94.5 21 154.5 65 l0 -101 ZM512 531 q-150 1 -249 38.5 q-99 37.5 -103 93.5 q4 56 103 93 q99 37 249 39 q150 -2 249 -39 q99 -37 103 -93 q-4 -56 -103 -93.5 q-99 -37.5 -249 -38.5 ZM776 120 q13 0 21 -8.5 q8 -8.5 8 -21 q0 -12.5 -8 -20.5 q-8 -8 -20.5 -8 q-12.5 0 -21 8 q-8.5 8 -8.5 20.5 q0 12.5 8.5 21 q8.5 8.5 20.5 8.5 ZM776 296 q13 0 21 -8.5 q8 -8.5 8 -21 q0 -12.5 -8 -20.5 q-8 -8 -20.5 -8 q-12.5 0 -21 8 q-8.5 8 -8.5 20.5 q0 12.5 8.5 21 q8.5 8.5 20.5 8.5 ZM776 472 q13 0 21 -8.5 q8 -8.5 8 -21 q0 -12.5 -8 -20.5 q-8 -8 -20.5 -8 q-12.5 0 -21 8 q-8.5 8 -8.5 20.5 q0 12.5 8.5 21 q8.5 8.5 20.5 8.5 Z" /><glyph glyph-name="costcenterE681" unicode="&#xe681;" d="M441 470 q-14 -8 -23.5 -21.5 q-9.5 -13.5 -8.5 -29.5 q-1 -14 6.5 -25.5 q7.5 -11.5 20.5 -18.5 q19 -10 40 -15 l10 -3 l0 128 l-13 -3 q-17 -3 -32 -12 ZM600 249 q-18 12 -39 19 q-10 4 -23 8 l0 -151 q30 4 55 20 q15 9 23.5 23.5 q8.5 14.5 8.5 31.5 q0 14 -6 27.5 q-6 13.5 -19 21.5 ZM657 682 l125 214 l-540 0 l128 -213 q-131 -44 -210 -150 q-79 -106 -83 -244 q12 -179 134 -296 q122 -117 301 -121 q179 4 301 121 q122 117 134 296 q-4 137 -82 243 q-78 106 -208 150 ZM684 146 q-18 -27 -45.5 -45.5 q-27.5 -18.5 -60.5 -27.5 q-20 -6 -41 -9 l0 -32 q0 -10 -7 -17.5 q-7 -7.5 -18 -7.5 q-11 0 -18 7.5 q-7 7.5 -7 17.5 l0 31 q-28 2 -54 9 q-31 9 -59 24 q-21 12 -37 29 q-11 10 -14 24 q1 13 6 24 q7 13 22 12 q12 -1 21 -10 q13 -12 28 -22 q21 -13 44 -21 q21 -7 43 -8 l0 167 q-37 9 -63.5 18 q-26.5 9 -49.5 25 q-19 13 -29 34 q-10 24 -10 49 q0 29 14.5 53.5 q14.5 24.5 37.5 40.5 q26 18 56 26 q22 6 44 8 l0 26 q0 11 7.5 18 q7.5 7 18 7 q10.5 0 17.5 -7 q7 -7 7 -18 l0 -26 q23 -2 45 -7 q28 -6 54 -19 q19 -9 35 -24 q11 -10 12 -24 q1 -14 -6 -27 q-6 -9 -16.5 -11.5 q-10.5 -2.5 -19.5 4.5 l-20 14 q-21 16 -45 26 q-19 7 -39 9 l0 -144 l3 -1 q34 -9 63 -19 q27 -9 51 -25 q21 -15 34 -37 q14 -28 12.5 -57.5 q-1.5 -29.5 -16.5 -56.5 Z" /><glyph glyph-name="subjectE682" unicode="&#xe682;" d="M633 593 l-559 0 q-11 0 -18 7 q-7 7 -7 19 l0 203 q0 11 7 18 q7 7 18 7 l559 0 q11 0 18 -7 q7 -7 7 -18 l0 -203 q0 -10 -7.5 -17.5 q-7.5 -7.5 -17.5 -8.5 ZM988 136 q12 0 19 -7 q7 -7 7 -18 l0 -203 q-1 -10 -8.5 -17.5 q-7.5 -7.5 -17.5 -8.5 l-558 0 q-12 0 -19 7 q-7 7 -7 19 l0 77 l-152 0 l0 51 l152 0 l0 75 q0 11 7 18 q7 7 19 7 l558 0 ZM633 878 q23 -1 38 -14.5 q15 -13.5 17 -35.5 l1 -209 q-1 -22 -15 -37.5 q-14 -15.5 -35 -18.5 l-6 0 l-381 0 l0 -579 l-25 0 q-12 0 -19 7 q-7 7 -7 18 l0 554 l-127 0 q-23 0 -38 13.5 q-15 13.5 -17 35.5 l-1 210 q1 23 14.5 38 q13.5 15 35.5 17 l565 1 ZM988 492 q12 0 19 -7 q7 -7 7 -19 l0 -203 q-1 -10 -8.5 -17.5 q-7.5 -7.5 -17.5 -7.5 l-558 0 q-12 0 -19 7 q-7 7 -7 18 l0 78 l-152 0 l0 50 l152 0 l0 75 q0 12 7 19 q7 7 19 7 l558 0 ZM628 817 l-549 0 l0 -193 l549 0 l0 193 Z" /></font>
</defs>
</svg>
